<svg id="e714d0d0-2cc7-4710-968c-335dc9ff2c5b" data-name="Layer 1" xmlns="http://www.w3.org/2000/svg" width="170" height="110" viewBox="0 0 170 110">
  <defs>
    <style>
      .b1eeafd6-179f-4d11-b580-f389de4ed480 {
        fill: #c4c4c4;
      }

      .f47f4f04-d241-4c23-8d90-11e63a2f3d93 {
        fill: #fff;
      }
    </style>
  </defs>
  <title>client logo</title>
  <g>
    <g>
      <path class="b1eeafd6-179f-4d11-b580-f389de4ed480" d="M70.42,46H68.83v3.94a7.72,7.72,0,0,1-2.35,0V38.16l.12-.11L69,38l1.45,0a4.25,4.25,0,0,1,3,1,3.8,3.8,0,0,1,1.12,3,4.59,4.59,0,0,1-.3,1.72A3.23,3.23,0,0,1,73.4,45a3.66,3.66,0,0,1-1.29.78A5,5,0,0,1,70.42,46Zm-1.59-6.21v4.43H70a4.7,4.7,0,0,0,.81-.06,1.46,1.46,0,0,0,.57-.23,1.41,1.41,0,0,0,.42-.5,2,2,0,0,0,.26-.67,3.14,3.14,0,0,0,.09-.75,3.48,3.48,0,0,0-.09-.79,1.94,1.94,0,0,0-.29-.71,1.56,1.56,0,0,0-.55-.5,1.75,1.75,0,0,0-.87-.19h-.87Z"/>
      <path class="b1eeafd6-179f-4d11-b580-f389de4ed480" d="M79,47v1.08l1.21,0h4.26a4.87,4.87,0,0,1,0,.86A1.3,1.3,0,0,1,82.93,50H78a1.29,1.29,0,0,1-1-.38,1.37,1.37,0,0,1-.36-1V38.19l.12-.12h7.25a4.59,4.59,0,0,1,.09.93A3,3,0,0,1,84,40H79v3h4.07a2.93,2.93,0,0,1,.14,1,3,3,0,0,1-.14,1H79Z"/>
      <path class="b1eeafd6-179f-4d11-b580-f389de4ed480" d="M90.91,41.29v8.65a6.83,6.83,0,0,1-1.18.09,6.71,6.71,0,0,1-1.17-.09V41.29l0-1.29-1.06,0H85.59a4.88,4.88,0,0,1-.09-1,4.78,4.78,0,0,1,.09-1H93.9A3.58,3.58,0,0,1,94,39a.9.9,0,0,1-.3.75,1.44,1.44,0,0,1-1,.25H92l-1.06,0Z"/>
      <path class="b1eeafd6-179f-4d11-b580-f389de4ed480" d="M103.86,41.65a3.55,3.55,0,0,1-.17,1.09,3.17,3.17,0,0,1-.46.92,3.58,3.58,0,0,1-.69.71,2.74,2.74,0,0,1-.86.46,1.72,1.72,0,0,1,.76.54,3.82,3.82,0,0,1,.53,1l.64,1.76a4.39,4.39,0,0,0,.35.75,2,2,0,0,0,.47.52,1.59,1.59,0,0,1-.65.5,2.25,2.25,0,0,1-1,.19,1.12,1.12,0,0,1-.83-.31,3.07,3.07,0,0,1-.57-1.06l-.73-2.07a2.22,2.22,0,0,0-.58-.93,1.52,1.52,0,0,0-1-.32H98v4.55a4,4,0,0,1-.54.06,6.4,6.4,0,0,1-.64,0,6.23,6.23,0,0,1-1.13-.09V38.16l.12-.11,2.39,0,1.57,0a4.47,4.47,0,0,1,3,.94A3.39,3.39,0,0,1,103.86,41.65ZM98,39.76v3.82c.6,0,1.13,0,1.6,0a1.65,1.65,0,0,0,1.86-1.88,1.65,1.65,0,0,0-1.86-1.88H98Z"/>
      <path class="b1eeafd6-179f-4d11-b580-f389de4ed480" d="M107.33,49.13q-1.86-1.6-1.86-5.11a9.53,9.53,0,0,1,.34-2.63,5.64,5.64,0,0,1,1-1.94,4.3,4.3,0,0,1,1.59-1.21,5.21,5.21,0,0,1,2.12-.41,5.27,5.27,0,0,1,2.12.41,4.23,4.23,0,0,1,1.57,1.21,5.42,5.42,0,0,1,1,1.95,9.14,9.14,0,0,1,.34,2.62,9,9,0,0,1-.34,2.6,5.37,5.37,0,0,1-1,1.94,4.23,4.23,0,0,1-1.57,1.21,5.11,5.11,0,0,1-2.12.42A4.88,4.88,0,0,1,107.33,49.13ZM113.07,44q0-4.37-2.57-4.37T107.92,44q0,4.33,2.58,4.34T113.07,44Z"/>
      <path class="b1eeafd6-179f-4d11-b580-f389de4ed480" d="M126.82,49.35a1.73,1.73,0,0,1-1.56.73,1.23,1.23,0,0,1-.92-.31,2.79,2.79,0,0,1-.54-1.06l-.8-2.28a3.19,3.19,0,0,0-.72-1.28,1.54,1.54,0,0,0-1.1-.37l-1,0v5.13a7.65,7.65,0,0,1-2.34,0V38.07a7.65,7.65,0,0,1,2.34,0v4.78l.7,0a.61.61,0,0,0,.41-.11,1.54,1.54,0,0,0,.31-.43l1.92-3.44a2.47,2.47,0,0,1,.52-.67,1.22,1.22,0,0,1,.73-.2c.32,0,.79,0,1.41.07l.14.18L124,42.45a3.51,3.51,0,0,1-.85,1.08,2.17,2.17,0,0,1,1.25.67,4.43,4.43,0,0,1,.77,1.38l.81,2.33c.08.21.13.33.15.37s0,.13.11.27a2.22,2.22,0,0,0,.38.61C126.71,49.24,126.77,49.31,126.82,49.35Z"/>
      <path class="b1eeafd6-179f-4d11-b580-f389de4ed480" d="M128.68,49.94V38.07a5.94,5.94,0,0,1,1.15-.09,6.83,6.83,0,0,1,1.2.09V49.94a6.83,6.83,0,0,1-1.2.09A5.94,5.94,0,0,1,128.68,49.94Z"/>
      <path class="b1eeafd6-179f-4d11-b580-f389de4ed480" d="M133.79,49.91l.92-11.82a9.34,9.34,0,0,1,1.54-.12,8.8,8.8,0,0,1,1.51.12l1.33,4.81c.36,1.44.58,2.43.66,3h.13c.08-.55.3-1.54.66-3l1.32-4.81a9.81,9.81,0,0,1,3.06,0l.92,11.82a4.57,4.57,0,0,1-1.12.12,6.63,6.63,0,0,1-1.09-.07l-.33-5.58c-.09-1.44-.14-2.69-.14-3.77H143l-2,7.56a7.75,7.75,0,0,1-1.19.09,7.56,7.56,0,0,1-1.19-.09l-2-7.56h-.12c0,1.42-.07,2.68-.14,3.77L136,50a6.63,6.63,0,0,1-1.09.07A4.63,4.63,0,0,1,133.79,49.91Z"/>
      <path class="b1eeafd6-179f-4d11-b580-f389de4ed480" d="M148.62,49.94V38.07a5.94,5.94,0,0,1,1.15-.09,6.83,6.83,0,0,1,1.2.09V49.94a6.83,6.83,0,0,1-1.2.09A5.94,5.94,0,0,1,148.62,49.94Z"/>
      <path class="b1eeafd6-179f-4d11-b580-f389de4ed480" d="M160,47.25l-.86,0h-2.43l-.85,0L155.07,50a4.54,4.54,0,0,1-1,.09,3,3,0,0,1-1.09-.16l-.09-.12,3.88-11.7a10,10,0,0,1,1.39-.09,7,7,0,0,1,1.3.11l3.81,11.7a2.41,2.41,0,0,1-1.21.29,1.53,1.53,0,0,1-1-.26,2,2,0,0,1-.51-1Zm-3.57-1.84.78,0h1.5l.73,0L159,43.63c-.4-1.32-.71-2.44-.94-3.37h-.11c-.1.5-.36,1.48-.76,2.94Z"/>
      <path class="b1eeafd6-179f-4d11-b580-f389de4ed480" d="M71,61.91h2.7c1.07,0,1.6.49,1.6,1.47v4.56a13.47,13.47,0,0,1-4.54.73,5.23,5.23,0,0,1-2.2-.44A4.22,4.22,0,0,1,67,67a5.43,5.43,0,0,1-.94-1.93,9.3,9.3,0,0,1-.31-2.5,7.75,7.75,0,0,1,.45-2.78,5.7,5.7,0,0,1,1.2-2,4.65,4.65,0,0,1,1.73-1.15,5.7,5.7,0,0,1,2.06-.37,7.19,7.19,0,0,1,4.08,1.25,2.12,2.12,0,0,1-.37,1,2.41,2.41,0,0,1-.7.72,5,5,0,0,0-2.92-1q-3.14,0-3.13,4.26c0,2.84,1,4.26,3.11,4.26a7.92,7.92,0,0,0,1.84-.21V65c0-.26,0-.48,0-.67s0-.35,0-.48H72a1.2,1.2,0,0,1-.86-.25,1.07,1.07,0,0,1-.25-.78A3,3,0,0,1,71,61.91Z"/>
      <path class="b1eeafd6-179f-4d11-b580-f389de4ed480" d="M86.11,60.12a3.51,3.51,0,0,1-.17,1.09,3.17,3.17,0,0,1-.46.92,3.32,3.32,0,0,1-.69.71,2.55,2.55,0,0,1-.86.46,1.66,1.66,0,0,1,.76.54,3.82,3.82,0,0,1,.53,1l.64,1.76a4.39,4.39,0,0,0,.35.75,2,2,0,0,0,.47.52,1.51,1.51,0,0,1-.65.5,2.25,2.25,0,0,1-1,.19,1.12,1.12,0,0,1-.83-.31,3.07,3.07,0,0,1-.57-1.06l-.73-2.07a2.35,2.35,0,0,0-.58-.93,1.52,1.52,0,0,0-1-.32H80.25v4.56l-.54.06-.64,0a7.4,7.4,0,0,1-1.13-.08V56.63l.12-.11,2.39-.05,1.57,0a4.47,4.47,0,0,1,3,.94A3.39,3.39,0,0,1,86.11,60.12Zm-5.86-1.89v3.82c.6,0,1.13,0,1.6,0a1.88,1.88,0,0,0,0-3.75h-.93Z"/>
      <path class="b1eeafd6-179f-4d11-b580-f389de4ed480" d="M91,65.44v1.08l1.21,0h4.26a4.75,4.75,0,0,1-.05.85,1.3,1.3,0,0,1-1.49,1.11H90a1.28,1.28,0,0,1-1-.37,1.41,1.41,0,0,1-.36-1V56.66l.12-.12H96a4.59,4.59,0,0,1,.09.93,3.06,3.06,0,0,1-.19,1H91v3l1.13,0H95a3.33,3.33,0,0,1,0,1.91H91Z"/>
      <path class="b1eeafd6-179f-4d11-b580-f389de4ed480" d="M97.7,67.37a2.75,2.75,0,0,1,.32-1,2.83,2.83,0,0,1,.62-.79,6.55,6.55,0,0,0,3.51,1.15,2,2,0,0,0,1.32-.39,1.22,1.22,0,0,0,.49-1c0-.67-.47-1.2-1.34-1.58l-2.05-.87a4.28,4.28,0,0,1-1.82-1.29,2.9,2.9,0,0,1-.61-1.82,3.36,3.36,0,0,1,.3-1.43,3.17,3.17,0,0,1,.87-1.1,4.1,4.1,0,0,1,1.34-.72,5.43,5.43,0,0,1,1.71-.26,8.16,8.16,0,0,1,3.76,1A2.55,2.55,0,0,1,105.3,59a7.38,7.38,0,0,0-3.06-.82,1.94,1.94,0,0,0-1.28.38,1.18,1.18,0,0,0-.44.93q0,.79,1.23,1.32l2,.86a4.68,4.68,0,0,1,1.93,1.38,3,3,0,0,1,.68,2,3.64,3.64,0,0,1-.28,1.45,2.88,2.88,0,0,1-.84,1.15,4.12,4.12,0,0,1-1.41.75,6.52,6.52,0,0,1-2,.27A7.51,7.51,0,0,1,97.7,67.37Z"/>
      <path class="b1eeafd6-179f-4d11-b580-f389de4ed480" d="M108.65,68.42V56.54a6,6,0,0,1,1.15-.09,6.83,6.83,0,0,1,1.2.09V68.42a8.1,8.1,0,0,1-1.2.08A7.11,7.11,0,0,1,108.65,68.42Z"/>
      <path class="b1eeafd6-179f-4d11-b580-f389de4ed480" d="M123.05,67.82a1.75,1.75,0,0,1-1.57.73,1.21,1.21,0,0,1-.91-.31,2.93,2.93,0,0,1-.55-1.06l-.79-2.28a3.14,3.14,0,0,0-.72-1.27,1.56,1.56,0,0,0-1.1-.38l-1,0v5.13a8.6,8.6,0,0,1-2.34,0V56.54a7.65,7.65,0,0,1,2.34,0v4.78l.69,0a.62.62,0,0,0,.42-.11,1.46,1.46,0,0,0,.31-.42l1.92-3.45a2.29,2.29,0,0,1,.52-.67,1.22,1.22,0,0,1,.73-.2c.32,0,.78,0,1.41.07l.14.18-2.36,4.22a3.51,3.51,0,0,1-.85,1.08,2.23,2.23,0,0,1,1.25.67,4.43,4.43,0,0,1,.76,1.38l.82,2.33c.08.21.13.33.14.37l.12.27a2.22,2.22,0,0,0,.38.61Z"/>
    </g>
    <g>
      <path class="b1eeafd6-179f-4d11-b580-f389de4ed480" d="M66.38,78.86a1.38,1.38,0,0,1,.15-.46,1.46,1.46,0,0,1,.29-.38,3,3,0,0,0,1.67.55,1,1,0,0,0,.62-.19.55.55,0,0,0,.23-.46q0-.48-.63-.75l-1-.42a2,2,0,0,1-.87-.61,1.39,1.39,0,0,1-.28-.86,1.53,1.53,0,0,1,.14-.68,1.58,1.58,0,0,1,.41-.52,2.05,2.05,0,0,1,.64-.34,2.55,2.55,0,0,1,.81-.12,3.88,3.88,0,0,1,1.78.45,1.23,1.23,0,0,1-.39.84,3.54,3.54,0,0,0-1.45-.39.92.92,0,0,0-.61.18.56.56,0,0,0-.21.44c0,.26.2.46.59.63l1,.41a2.11,2.11,0,0,1,.91.65,1.43,1.43,0,0,1,.33.93,1.74,1.74,0,0,1-.14.69A1.32,1.32,0,0,1,70,79a1.8,1.8,0,0,1-.66.35,3,3,0,0,1-1,.13A3.52,3.52,0,0,1,66.38,78.86Z"/>
      <path class="b1eeafd6-179f-4d11-b580-f389de4ed480" d="M75.73,75.62a2.28,2.28,0,0,1,.58,1.69,3.16,3.16,0,0,1-.12.9,1.93,1.93,0,0,1-.36.68,1.66,1.66,0,0,1-.58.43,2.1,2.1,0,0,1-1.56,0,1.66,1.66,0,0,1-.58-.43,2.31,2.31,0,0,1-.36-.68,3.16,3.16,0,0,1-.12-.9,2.38,2.38,0,0,1,.48-1.57,1.65,1.65,0,0,1,1.36-.58A1.76,1.76,0,0,1,75.73,75.62ZM74.47,76c-.49,0-.73.45-.73,1.35s.24,1.35.73,1.35.73-.45.73-1.35S75,76,74.47,76Z"/>
      <path class="b1eeafd6-179f-4d11-b580-f389de4ed480" d="M80.12,78.57h.25a1.19,1.19,0,0,1,.09.44,2.05,2.05,0,0,1,0,.31,5.91,5.91,0,0,1-.8.08.91.91,0,0,1-.7-.24,1.12,1.12,0,0,1-.22-.77v-5l0,0h.42a.58.58,0,0,1,.45.15.76.76,0,0,1,.13.51v4.23C79.77,78.44,79.89,78.57,80.12,78.57Z"/>
      <path class="b1eeafd6-179f-4d11-b580-f389de4ed480" d="M82.64,78v-1.8a1.41,1.41,0,0,0-.17-.78.91.91,0,0,1,.63-.23.6.6,0,0,1,.49.16.84.84,0,0,1,.13.51V77.8a1.05,1.05,0,0,0,.09.51.37.37,0,0,0,.34.15,1.18,1.18,0,0,0,.82-.38V75.27a2.36,2.36,0,0,1,.53,0,2.75,2.75,0,0,1,.55,0V78.2a.84.84,0,0,0,.23.68,1.05,1.05,0,0,1-.15.3.74.74,0,0,1-.22.24,1,1,0,0,1-.83-.58,1.93,1.93,0,0,1-1.31.59,1,1,0,0,1-.84-.39A1.65,1.65,0,0,1,82.64,78Z"/>
      <path class="b1eeafd6-179f-4d11-b580-f389de4ed480" d="M88.38,79.07a1.07,1.07,0,0,1,.1-.4,1,1,0,0,1,.22-.34,2.5,2.5,0,0,0,1.14.35.74.74,0,0,0,.44-.11.3.3,0,0,0,.17-.28c0-.2-.15-.35-.44-.46l-.46-.18c-.7-.25-1-.65-1-1.21a1.29,1.29,0,0,1,.11-.53,1.11,1.11,0,0,1,.31-.4,1.4,1.4,0,0,1,.48-.26,2.08,2.08,0,0,1,.63-.09,2.24,2.24,0,0,1,.35,0l.39.07.38.1a1.81,1.81,0,0,1,.31.13,1.12,1.12,0,0,1-.08.43.8.8,0,0,1-.22.33A2.77,2.77,0,0,0,90,76a.51.51,0,0,0-.34.1.34.34,0,0,0-.12.27c0,.17.14.3.41.4l.5.18a1.75,1.75,0,0,1,.81.52,1.18,1.18,0,0,1,.26.77,1.12,1.12,0,0,1-.43.93,1.92,1.92,0,0,1-1.25.35A2.91,2.91,0,0,1,88.38,79.07Z"/>
      <path class="b1eeafd6-179f-4d11-b580-f389de4ed480" d="M95.16,76.1v3.26l-.26,0h-.55l-.27,0V76.49c0-.3-.12-.45-.37-.45h-.1a1.2,1.2,0,0,1,0-.38,1.28,1.28,0,0,1,0-.38l.35,0h.41a.75.75,0,0,1,.58.23A.89.89,0,0,1,95.16,76.1Zm-1.24-2.42a1.13,1.13,0,0,1,.54-.1,1.58,1.58,0,0,1,.34,0,.51.51,0,0,1,.18.08.23.23,0,0,1,.07.17,1,1,0,0,1,0,.25c0,.28,0,.43-.1.46a1.78,1.78,0,0,1-.52.08q-.45,0-.54-.12a.81.81,0,0,1-.07-.42A1,1,0,0,1,93.92,73.68Z"/>
      <path class="b1eeafd6-179f-4d11-b580-f389de4ed480" d="M104.13,78.08h-2l-.39,1.29a2.81,2.81,0,0,1-.49,0,1.43,1.43,0,0,1-.51-.08l0-.06,1.83-5.54a4.68,4.68,0,0,1,.66,0,3.7,3.7,0,0,1,.62,0l1.8,5.54a1,1,0,0,1-.57.14.77.77,0,0,1-.48-.12,1.06,1.06,0,0,1-.24-.47Zm-1.69-.87h1.43l-.25-.84c-.19-.63-.34-1.16-.45-1.6h0c0,.24-.17.7-.37,1.39Z"/>
      <path class="b1eeafd6-179f-4d11-b580-f389de4ed480" d="M110.34,75.56a.93.93,0,0,1,.68-.35.89.89,0,0,1,.23.24.9.9,0,0,1,.13.31.84.84,0,0,0-.23.68v2.3a5,5,0,0,1-.12,1.19,1.89,1.89,0,0,1-.34.74,1.29,1.29,0,0,1-.58.4,2.91,2.91,0,0,1-.82.11,3.92,3.92,0,0,1-1.49-.28,1.38,1.38,0,0,1,.07-.43,1,1,0,0,1,.2-.36,2.44,2.44,0,0,0,1.11.25c.61,0,.92-.33.92-1v-.32a1.58,1.58,0,0,1-1,.37,1.2,1.2,0,0,1-1.09-.57,2.81,2.81,0,0,1-.37-1.56,2.75,2.75,0,0,1,.13-.9,2.11,2.11,0,0,1,.34-.67,1.72,1.72,0,0,1,.51-.43,1.44,1.44,0,0,1,.62-.14A1.56,1.56,0,0,1,110.34,75.56Zm-.24,2.62V76.31a1,1,0,0,0-.68-.33.56.56,0,0,0-.51.35,2.17,2.17,0,0,0-.18,1,2.08,2.08,0,0,0,.16,1,.51.51,0,0,0,.45.3A1,1,0,0,0,110.1,78.18Z"/>
      <path class="b1eeafd6-179f-4d11-b580-f389de4ed480" d="M113.58,75.77a.94.94,0,0,1,.13-.32.86.86,0,0,1,.21-.24,1.06,1.06,0,0,1,.92.74,1.06,1.06,0,0,1,1-.74,2,2,0,0,1,.5.06,1.86,1.86,0,0,1-.27,1,1.43,1.43,0,0,0-.38-.06.89.89,0,0,0-.77.51v2.63a4.24,4.24,0,0,1-.53,0,4.91,4.91,0,0,1-.55,0V76.61A1,1,0,0,0,113.58,75.77Z"/>
      <path class="b1eeafd6-179f-4d11-b580-f389de4ed480" d="M121.21,75.62a2.28,2.28,0,0,1,.59,1.69,3.15,3.15,0,0,1-.13.9,1.93,1.93,0,0,1-.36.68,1.57,1.57,0,0,1-.58.43,2.1,2.1,0,0,1-1.56,0,1.54,1.54,0,0,1-.57-.43,1.93,1.93,0,0,1-.36-.68,3.15,3.15,0,0,1-.13-.9,2.38,2.38,0,0,1,.48-1.57,1.65,1.65,0,0,1,1.36-.58A1.73,1.73,0,0,1,121.21,75.62ZM120,76q-.72,0-.72,1.35t.72,1.35c.49,0,.73-.45.73-1.35S120.44,76,120,76Z"/>
      <path class="b1eeafd6-179f-4d11-b580-f389de4ed480" d="M125.44,76.1v3.26l-.26,0h-.55l-.27,0V76.49c0-.3-.12-.45-.37-.45h-.1a1.2,1.2,0,0,1,0-.38,1.28,1.28,0,0,1,0-.38l.35,0h.41a.75.75,0,0,1,.58.23A.89.89,0,0,1,125.44,76.1Zm-1.24-2.42a1.16,1.16,0,0,1,.54-.1,1.58,1.58,0,0,1,.34,0,.51.51,0,0,1,.18.08.23.23,0,0,1,.08.17,2,2,0,0,1,0,.25c0,.28,0,.43-.1.46a1.68,1.68,0,0,1-.51.08q-.46,0-.54-.12a.7.7,0,0,1-.08-.42A1.18,1.18,0,0,1,124.2,73.68Z"/>
      <path class="b1eeafd6-179f-4d11-b580-f389de4ed480" d="M131.5,76.61V78.4a1.36,1.36,0,0,0,.18.78.92.92,0,0,1-.64.23.59.59,0,0,1-.48-.16.75.75,0,0,1-.13-.5V76.83a1.07,1.07,0,0,0-.09-.52.38.38,0,0,0-.34-.15,1.11,1.11,0,0,0-.82.4v2.8l-.26,0h-.55l-.26,0V75.28l0-.06h.41a.56.56,0,0,1,.58.5,1.82,1.82,0,0,1,1.19-.52,1,1,0,0,1,.88.38A1.7,1.7,0,0,1,131.5,76.61Z"/>
      <path class="b1eeafd6-179f-4d11-b580-f389de4ed480" d="M135.52,75.19a1.88,1.88,0,0,1,.84.22V73.35l0,0h.41a.59.59,0,0,1,.46.14.79.79,0,0,1,.13.52v4.22a.84.84,0,0,0,.23.68,1,1,0,0,1-.14.32.72.72,0,0,1-.21.24.92.92,0,0,1-.78-.48,1.54,1.54,0,0,1-1.18.53,1.26,1.26,0,0,1-.62-.15,1.23,1.23,0,0,1-.45-.43,2,2,0,0,1-.27-.67,4,4,0,0,1-.09-.89,2.84,2.84,0,0,1,.13-.9,2.22,2.22,0,0,1,.34-.67,1.61,1.61,0,0,1,.52-.42A1.33,1.33,0,0,1,135.52,75.19Zm.09,3.4a.93.93,0,0,0,.75-.41V76.25l-.35-.18a.89.89,0,0,0-.31-.06.59.59,0,0,0-.51.34,2.06,2.06,0,0,0-.19,1,1.89,1.89,0,0,0,.17.94A.5.5,0,0,0,135.61,78.59Z"/>
      <path class="b1eeafd6-179f-4d11-b580-f389de4ed480" d="M140.07,78v-1.8a1.5,1.5,0,0,0-.17-.78.91.91,0,0,1,.63-.23.6.6,0,0,1,.49.16.91.91,0,0,1,.13.51V77.8a1.05,1.05,0,0,0,.09.51.36.36,0,0,0,.34.15,1.14,1.14,0,0,0,.81-.38V75.27a2.42,2.42,0,0,1,.53,0,2.62,2.62,0,0,1,.55,0V78.2a.87.87,0,0,0,.23.68,1,1,0,0,1-.14.3.74.74,0,0,1-.22.24.93.93,0,0,1-.83-.58,2,2,0,0,1-1.31.59,1,1,0,0,1-.84-.39A1.65,1.65,0,0,1,140.07,78Z"/>
      <path class="b1eeafd6-179f-4d11-b580-f389de4ed480" d="M145.8,79.07a1.3,1.3,0,0,1,.1-.4,1.17,1.17,0,0,1,.22-.34,2.57,2.57,0,0,0,1.15.35.74.74,0,0,0,.44-.11.32.32,0,0,0,.17-.28c0-.2-.15-.35-.45-.46l-.46-.18c-.69-.25-1-.65-1-1.21a1.29,1.29,0,0,1,.11-.53,1.13,1.13,0,0,1,.32-.4,1.24,1.24,0,0,1,.48-.26,2,2,0,0,1,.62-.09,2.11,2.11,0,0,1,.35,0l.4.07.37.1a1.63,1.63,0,0,1,.32.13,1.35,1.35,0,0,1-.08.43.81.81,0,0,1-.23.33,2.73,2.73,0,0,0-1.13-.29.48.48,0,0,0-.33.1.32.32,0,0,0-.13.27c0,.17.14.3.42.4l.5.18a1.72,1.72,0,0,1,.8.52,1.19,1.19,0,0,1,.27.77,1.13,1.13,0,0,1-.44.93,1.92,1.92,0,0,1-1.25.35A3,3,0,0,1,145.8,79.07Z"/>
      <path class="b1eeafd6-179f-4d11-b580-f389de4ed480" d="M153.54,75.26a1.35,1.35,0,0,1,.05.39,1.31,1.31,0,0,1-.05.39l-1,0v2.17c0,.25.11.38.35.38h.51a1.33,1.33,0,0,1,.08.47,1.43,1.43,0,0,1,0,.28,6.83,6.83,0,0,1-1,.08.89.89,0,0,1-1-1V76h-.62a1.55,1.55,0,0,1,0-.78h.62v-.59a.82.82,0,0,1,.13-.51.59.59,0,0,1,.46-.15h.41l.06,0v1.21Z"/>
      <path class="b1eeafd6-179f-4d11-b580-f389de4ed480" d="M155.63,75.77a1.25,1.25,0,0,1,.14-.32.86.86,0,0,1,.21-.24,1,1,0,0,1,.91.74,1.08,1.08,0,0,1,1.05-.74,1.83,1.83,0,0,1,.49.06,1.85,1.85,0,0,1-.26,1,1.43,1.43,0,0,0-.38-.06.88.88,0,0,0-.77.51v2.63a4.39,4.39,0,0,1-.53,0,4.74,4.74,0,0,1-.55,0V76.61A1,1,0,0,0,155.63,75.77Z"/>
      <path class="b1eeafd6-179f-4d11-b580-f389de4ed480" d="M162,76.1v3.26l-.26,0h-.55l-.27,0V76.49c0-.3-.12-.45-.37-.45h-.11a1.58,1.58,0,0,1-.05-.38,1.73,1.73,0,0,1,.05-.38l.35,0h.42a.75.75,0,0,1,.58.23A.89.89,0,0,1,162,76.1Zm-1.24-2.42a1.1,1.1,0,0,1,.54-.1,1.42,1.42,0,0,1,.33,0,.49.49,0,0,1,.19.08.23.23,0,0,1,.07.17,2,2,0,0,1,0,.25c0,.28-.05.43-.1.46a1.85,1.85,0,0,1-.52.08q-.47,0-.54-.12a.78.78,0,0,1-.08-.42A1,1,0,0,1,160.72,73.68Z"/>
    </g>
    <g>
      <path class="b1eeafd6-179f-4d11-b580-f389de4ed480" d="M56.11,56.29a16.62,16.62,0,0,0-3-6,13,13,0,0,0-3.79-3.15,11.17,11.17,0,0,0-4.62-1.4l-1.09,0,1,.45A9.07,9.07,0,0,1,47,47.9a7.65,7.65,0,0,1,2.43,5.61c0,4.57-2.18,6.63-4.55,8.73a6.12,6.12,0,0,0-1-1.8,5,5,0,0,0-4.63-1.77l-.95.1.9.33a3,3,0,0,1,2,2.63,3.75,3.75,0,0,1-1.11,2.32,6.49,6.49,0,0,0-1.73,4,3.42,3.42,0,0,0-1.05-.17A2.76,2.76,0,0,0,35,69.06a2.51,2.51,0,0,0-1.53-1.34c-1.08-.28-1.46-.72-1.51-.87l-.22-.5-.22.5c-.08.17-.42.59-1.51.87a2.54,2.54,0,0,0-1.53,1.34,2.76,2.76,0,0,0-2.26-1.14,3.47,3.47,0,0,0-1.05.17,6.43,6.43,0,0,0-1.73-4,3.75,3.75,0,0,1-1.11-2.32,3,3,0,0,1,2-2.63l.91-.33-1-.1a5,5,0,0,0-4.63,1.77,6.37,6.37,0,0,0-1,1.8c-2.37-2.1-4.54-4.16-4.54-8.73a7.64,7.64,0,0,1,2.42-5.61A8.86,8.86,0,0,1,19,46.16l1-.45-1.09,0a11.17,11.17,0,0,0-4.62,1.4,13,13,0,0,0-3.79,3.15,16.6,16.6,0,0,0-3,6A16.36,16.36,0,0,0,9.7,70.5,12.74,12.74,0,0,0,19.28,76,8.92,8.92,0,0,0,20,77.08c1.88,2.57,3.84,3.63,6.78,3.63a8.18,8.18,0,0,0,5-1.72,8.18,8.18,0,0,0,5,1.72c2.94,0,4.9-1.06,6.78-3.63a10.46,10.46,0,0,0,.7-1.09,12.75,12.75,0,0,0,9.58-5.49A16.43,16.43,0,0,0,56.11,56.29Z"/>
      <path class="f47f4f04-d241-4c23-8d90-11e63a2f3d93" d="M56.11,56.29a16.62,16.62,0,0,0-3-6,13,13,0,0,0-3.79-3.15,11.17,11.17,0,0,0-4.62-1.4l-1.09,0,1,.45A9.07,9.07,0,0,1,47,47.9a7.65,7.65,0,0,1,2.43,5.61c0,4.57-2.18,6.63-4.55,8.73a6.12,6.12,0,0,0-1-1.8,5,5,0,0,0-4.63-1.77l-.95.1.9.33a3,3,0,0,1,2,2.63,3.75,3.75,0,0,1-1.11,2.32,6.49,6.49,0,0,0-1.73,4,3.42,3.42,0,0,0-1.05-.17A2.76,2.76,0,0,0,35,69.06a2.51,2.51,0,0,0-1.53-1.34c-1.08-.28-1.46-.72-1.51-.87l-.22-.5-.22.5c-.08.17-.42.59-1.51.87a2.54,2.54,0,0,0-1.53,1.34,2.76,2.76,0,0,0-2.26-1.14,3.47,3.47,0,0,0-1.05.17,6.43,6.43,0,0,0-1.73-4,3.75,3.75,0,0,1-1.11-2.32,3,3,0,0,1,2-2.63l.91-.33-1-.1a5,5,0,0,0-4.63,1.77,6.37,6.37,0,0,0-1,1.8c-2.37-2.1-4.54-4.16-4.54-8.73a7.64,7.64,0,0,1,2.42-5.61A8.86,8.86,0,0,1,19,46.16l1-.45-1.09,0a11.17,11.17,0,0,0-4.62,1.4,13,13,0,0,0-3.79,3.15,16.6,16.6,0,0,0-3,6A16.36,16.36,0,0,0,9.7,70.5,12.74,12.74,0,0,0,19.28,76,8.92,8.92,0,0,0,20,77.08c1.88,2.57,3.84,3.63,6.78,3.63a8.18,8.18,0,0,0,5-1.72,8.18,8.18,0,0,0,5,1.72c2.94,0,4.9-1.06,6.78-3.63a10.46,10.46,0,0,0,.7-1.09,12.75,12.75,0,0,0,9.58-5.49A16.43,16.43,0,0,0,56.11,56.29ZM10.05,70.24A16,16,0,0,1,7.88,56.41a16.24,16.24,0,0,1,2.93-5.83,12.31,12.31,0,0,1,3.64-3,11.61,11.61,0,0,1,3.36-1.22,10.65,10.65,0,0,0-1.57,1.26,8.26,8.26,0,0,0-2.55,5.93c0,4.91,2.38,7,4.9,9.25l.77.68A5.69,5.69,0,0,1,21,69.54a2.82,2.82,0,0,1-2.66,2,3,3,0,0,1-2.24-.87,2.78,2.78,0,0,1-.71-1.86,1.94,1.94,0,0,1,1.88-2.13,1.33,1.33,0,0,1,1.05.44,1.5,1.5,0,0,1,.35,1,1.24,1.24,0,0,1-1.3,1.32v.44a1.69,1.69,0,0,0,1.31-.55,1.83,1.83,0,0,0,.43-1.21,1.79,1.79,0,0,0-1.84-1.86A2.38,2.38,0,0,0,15,68.83,3.2,3.2,0,0,0,15.78,71a3.32,3.32,0,0,0,2.34,1A9.09,9.09,0,0,0,19,75.54,12.39,12.39,0,0,1,10.05,70.24Zm33.19,6.58a8.73,8.73,0,0,1-2.7,2.57,7.38,7.38,0,0,1-3.73.88,7.78,7.78,0,0,1-4.88-1.73l-.15-.13-.15.13a7.78,7.78,0,0,1-4.88,1.73A7.38,7.38,0,0,1,23,79.39,9.72,9.72,0,0,1,18.56,72a3.33,3.33,0,0,0,2.85-2.3,5.7,5.7,0,0,0,.19-3.31,6.4,6.4,0,0,0-1.94-3.27L19,62.56a5.47,5.47,0,0,1,1-1.85,4.42,4.42,0,0,1,3.43-1.64,3.27,3.27,0,0,0-.39.29,3,3,0,0,0-1.16,2.37,4.16,4.16,0,0,0,1.21,2.6,6,6,0,0,1,1.64,4.08v.36l.32-.16a2.51,2.51,0,0,1,3.29,1l.25.4.14-.45a2.3,2.3,0,0,1,1.38-1.42,3.4,3.4,0,0,0,1.62-.82,3.4,3.4,0,0,0,1.62.82,2.27,2.27,0,0,1,1.38,1.42l.14.45.26-.4a2.51,2.51,0,0,1,3.29-1l.31.16v-.36a6,6,0,0,1,1.64-4.08,4.16,4.16,0,0,0,1.21-2.6,3.07,3.07,0,0,0-1.15-2.37,4.41,4.41,0,0,0-.4-.29,4.42,4.42,0,0,1,3.43,1.64,5.74,5.74,0,0,1,1,1.85l-.63.56A6.27,6.27,0,0,0,42,66.39a5.7,5.7,0,0,0,.18,3.31A3.34,3.34,0,0,0,45,72,8.86,8.86,0,0,1,43.24,76.82Zm10.27-6.58a12.37,12.37,0,0,1-9,5.3A8.91,8.91,0,0,0,45.44,72a3.32,3.32,0,0,0,2.34-1,3.2,3.2,0,0,0,.83-2.16,2.38,2.38,0,0,0-2.32-2.57,1.79,1.79,0,0,0-1.84,1.86,1.83,1.83,0,0,0,.43,1.21,1.69,1.69,0,0,0,1.31.55v-.44a1.24,1.24,0,0,1-1.3-1.32,1.5,1.5,0,0,1,.35-1,1.34,1.34,0,0,1,1-.44,1.94,1.94,0,0,1,1.88,2.13,2.78,2.78,0,0,1-.71,1.86,3,3,0,0,1-2.24.87,2.84,2.84,0,0,1-2.66-2,5.7,5.7,0,0,1,1.64-6.1l.77-.68c2.52-2.23,4.91-4.34,4.91-9.25a8.22,8.22,0,0,0-2.56-5.93,10.65,10.65,0,0,0-1.57-1.26,11.61,11.61,0,0,1,3.36,1.22,12.35,12.35,0,0,1,3.65,3,16.22,16.22,0,0,1,2.92,5.83A15.93,15.93,0,0,1,53.51,70.24Z"/>
      <g>
        <path class="b1eeafd6-179f-4d11-b580-f389de4ed480" d="M39.34,36.07a6.63,6.63,0,0,0,.29-1.69,3.09,3.09,0,0,0-1.25-2.87c-1.06-.69-1.85-1.11-2.42-1.41a5.17,5.17,0,0,1-1.06-.64,3.5,3.5,0,0,1-.3-.33,3.38,3.38,0,0,0-2.82-1.42A3.34,3.34,0,0,0,29,29.13c-.12.13-.22.25-.31.33a5.34,5.34,0,0,1-1.05.64,26.58,26.58,0,0,0-2.43,1.41,3.09,3.09,0,0,0-1.25,2.87,7.13,7.13,0,0,0,.29,1.69c-.52.76-1.44,2.17-1.44,5.79a8.18,8.18,0,0,0,1.32,4.42,8,8,0,0,0,1.27,1.54,37.62,37.62,0,0,0,1.49,5.5,10.87,10.87,0,0,0-.4,2,5.16,5.16,0,0,0,.18,1.26,6.84,6.84,0,0,1,.21,1.35,18.65,18.65,0,0,1-1,3.9c-.08.23-.16.46-.25.68-.29.74-.54,1.39-.15,1.7a.8.8,0,0,0,.74.15,1.15,1.15,0,0,0,.89.28,1.75,1.75,0,0,0,1.55-1.26s0-.38,0-.85A1.58,1.58,0,0,0,30,61.23a14.46,14.46,0,0,0-.09-2.41,11.21,11.21,0,0,1,0-3.11,6.86,6.86,0,0,1,.43-1A4.36,4.36,0,0,0,31,52.61V51c.29.36.55.57.8.57s.49-.21.79-.59v1.61a4.36,4.36,0,0,0,.65,2.14,6.86,6.86,0,0,1,.43,1,11.62,11.62,0,0,1,0,3.11,13.44,13.44,0,0,0-.09,2.41A1.57,1.57,0,0,0,35,62.54c0,.47,0,.8,0,.85a1.75,1.75,0,0,0,1.56,1.26,1.14,1.14,0,0,0,.88-.28.79.79,0,0,0,.74-.15c.39-.31.14-1-.15-1.7-.08-.22-.17-.45-.25-.68a19.15,19.15,0,0,1-1-3.9,6.79,6.79,0,0,1,.2-1.35,5.76,5.76,0,0,0,.19-1.26,11.64,11.64,0,0,0-.41-2,37.62,37.62,0,0,0,1.49-5.5,8,8,0,0,0,1.27-1.54,8.18,8.18,0,0,0,1.32-4.42C40.78,38.24,39.86,36.83,39.34,36.07Z"/>
        <path class="f47f4f04-d241-4c23-8d90-11e63a2f3d93" d="M39.34,36.07a7.13,7.13,0,0,0,.29-1.69,3.09,3.09,0,0,0-1.25-2.87c-1.06-.69-1.85-1.11-2.42-1.41a5.17,5.17,0,0,1-1.06-.64,3.5,3.5,0,0,1-.3-.33,3.38,3.38,0,0,0-2.82-1.42A3.34,3.34,0,0,0,29,29.13c-.12.13-.22.25-.31.33a5.34,5.34,0,0,1-1.05.64,26.58,26.58,0,0,0-2.43,1.41,3.09,3.09,0,0,0-1.25,2.87,7.13,7.13,0,0,0,.29,1.69c-.52.76-1.44,2.17-1.44,5.79a8.18,8.18,0,0,0,1.32,4.42,8,8,0,0,0,1.27,1.54,37.62,37.62,0,0,0,1.49,5.5,10.87,10.87,0,0,0-.4,2,5.16,5.16,0,0,0,.18,1.26,6.84,6.84,0,0,1,.21,1.35,18.65,18.65,0,0,1-1,3.9c-.08.23-.16.46-.25.68-.29.74-.54,1.39-.15,1.7a.8.8,0,0,0,.74.15,1.15,1.15,0,0,0,.89.28,1.75,1.75,0,0,0,1.55-1.26s0-.38,0-.85A1.58,1.58,0,0,0,30,61.23a14.46,14.46,0,0,0-.09-2.41,11.21,11.21,0,0,1,0-3.11,6.86,6.86,0,0,1,.43-1A4.36,4.36,0,0,0,31,52.61V51c.29.36.55.57.8.57s.49-.21.79-.59v1.61a4.36,4.36,0,0,0,.65,2.14,6.86,6.86,0,0,1,.43,1,11.62,11.62,0,0,1,0,3.11,13.44,13.44,0,0,0-.09,2.41A1.57,1.57,0,0,0,35,62.54c0,.47,0,.8,0,.85a1.75,1.75,0,0,0,1.55,1.26,1.15,1.15,0,0,0,.89-.28.79.79,0,0,0,.74-.15c.39-.31.14-1-.15-1.7-.08-.22-.17-.45-.25-.68a19.15,19.15,0,0,1-1-3.9,6.79,6.79,0,0,1,.2-1.35,5.76,5.76,0,0,0,.19-1.26,11.64,11.64,0,0,0-.41-2,37.62,37.62,0,0,0,1.49-5.5,8,8,0,0,0,1.27-1.54,8.18,8.18,0,0,0,1.32-4.42C40.78,38.24,39.86,36.83,39.34,36.07ZM30.59,52.61a4,4,0,0,1-.6,2,6.32,6.32,0,0,0-.46,1,11.35,11.35,0,0,0,0,3.26,12.75,12.75,0,0,1,.1,2.32,1.19,1.19,0,0,1-1,1c-.05-1.52-.14-3.94-.15-4.32a23.79,23.79,0,0,0,1.06-2.77,8.62,8.62,0,0,0-.09-2.44,12.34,12.34,0,0,0,.17-1.92,10.05,10.05,0,0,0-.15-2c.16.23.33.52.5.79s.45.74.65,1Zm3.31,8.56A13.5,13.5,0,0,1,34,58.85a11.07,11.07,0,0,0,0-3.26,8.72,8.72,0,0,0-.46-1,4,4,0,0,1-.6-2V50.46c.18-.27.39-.6.61-1s.38-.61.55-.86A11.06,11.06,0,0,0,34,50.7a12.34,12.34,0,0,0,.17,1.92,9,9,0,0,0-.09,2.44,23.79,23.79,0,0,0,1.06,2.77c0,.38-.1,2.81-.15,4.33A1.2,1.2,0,0,1,33.9,61.17Zm4-13.59-.06.05v.08a38.36,38.36,0,0,1-1.5,5.55l0,.05v.06a10.6,10.6,0,0,1,.41,2,5.22,5.22,0,0,1-.18,1.17,7.27,7.27,0,0,0-.21,1.43,19.87,19.87,0,0,0,1,4c.08.24.17.47.25.69.2.51.44,1.13.27,1.27a.4.4,0,0,1-.47,0l-.28-.2,0,.33s-.17.17-.62.17a1.45,1.45,0,0,1-1.16-.87c0-.17.12-3.73.19-5.59v0l0,0a24.81,24.81,0,0,1-1-2.73,9.38,9.38,0,0,1,.09-2.34v-.07a11.42,11.42,0,0,1-.16-1.89A11.14,11.14,0,0,1,34.64,48l.12-.46-.4.25a5.69,5.69,0,0,0-1.12,1.52c-.29.47-.59,1-.87,1.34-.42.55-.57.56-.59.56-.33,0-1.07-1.22-1.52-2a5.36,5.36,0,0,0-1.05-1.47l-.41-.25.12.46a11.45,11.45,0,0,1,.29,2.69A11.88,11.88,0,0,1,29,52.57v.07a9.24,9.24,0,0,1,.1,2.34,26.54,26.54,0,0,1-1.06,2.73l0,0v0c.07,1.86.2,5.42.2,5.58a1.47,1.47,0,0,1-1.17.88c-.45,0-.59-.12-.61-.17l0-.33-.28.2a.39.39,0,0,1-.47,0c-.17-.14.08-.76.27-1.27a7,7,0,0,0,.25-.69,19.87,19.87,0,0,0,1-4A7.27,7.27,0,0,0,27,56.51a5.22,5.22,0,0,1-.18-1.17,10.6,10.6,0,0,1,.41-2v-.06l0-.05a37.36,37.36,0,0,1-1.49-5.55v-.08l-.06-.05a8,8,0,0,1-2.51-5.72c0-3.59.91-4.91,1.41-5.63l.07-.1,0-.1s-1.05-3,.77-4.2c1.05-.68,1.83-1.09,2.4-1.39a6.34,6.34,0,0,0,1.13-.69,4.26,4.26,0,0,0,.34-.37,3.11,3.11,0,0,1,5,0c.13.14.23.27.34.37a6.13,6.13,0,0,0,1.14.69,26.93,26.93,0,0,1,2.39,1.39C40,33,39,36,38.94,36l0,.1.08.1c.49.72,1.4,2,1.4,5.63A8,8,0,0,1,37.88,47.58Z"/>
        <path class="b1eeafd6-179f-4d11-b580-f389de4ed480" d="M33.73,39.48a1.42,1.42,0,0,1-.5-.11,2.89,2.89,0,0,0-2.9,0,.91.91,0,0,1-.87,0,.7.7,0,0,1-.27-.56V37.43C28.05,37,27.91,35.66,28,34.8a2.23,2.23,0,0,1-1.5-.48C24,35.25,23,33.89,23,33.83l-.17-.25.3,0a6.67,6.67,0,0,0,2.81-1.18,6.36,6.36,0,0,1-1.28-1,4.77,4.77,0,0,1-1.57-3.48,4.6,4.6,0,0,1,1.53-3.73,3.68,3.68,0,0,1,1.55-.8L27,23.2l-.72.51a3.21,3.21,0,0,0-1.49,2.85A4.47,4.47,0,0,0,26.89,30a3,3,0,0,0,3.52-.25l.07,0a1.6,1.6,0,0,1,1.3-.05,1.6,1.6,0,0,1,1.3.05l.07,0a3,3,0,0,0,3.52.25,4.5,4.5,0,0,0,2.1-3.43,3.25,3.25,0,0,0-1.49-2.85l-.73-.51.87.17a3.63,3.63,0,0,1,1.55.8A4.6,4.6,0,0,1,40.5,27.9a4.77,4.77,0,0,1-1.57,3.48,6.66,6.66,0,0,1-1.27,1,6.62,6.62,0,0,0,2.8,1.18l.31,0-.18.25a2.33,2.33,0,0,1-1.92.81A4.85,4.85,0,0,1,37,34.32a2.23,2.23,0,0,1-1.5.48c.11.86,0,2.21-1.17,2.63V38.8a.69.69,0,0,1-.28.57A.61.61,0,0,1,33.73,39.48Z"/>
        <path class="f47f4f04-d241-4c23-8d90-11e63a2f3d93" d="M34.2,32.77a2,2,0,0,0-1.08,1.71,1.32,1.32,0,0,1,.07-1.2A1.1,1.1,0,0,1,34.2,32.77Z"/>
        <path class="f47f4f04-d241-4c23-8d90-11e63a2f3d93" d="M34.69,33c-.07.3-.42.43-.69.55,0,0,.09.6-.2.68s-.25-.37-.25-.37a1.94,1.94,0,0,0-.24.71,1,1,0,0,0,.21-.08,1.14,1.14,0,0,1-.28.22,1.38,1.38,0,0,1,.29-1C33.9,33.25,34.4,33.29,34.69,33Z"/>
        <path class="f47f4f04-d241-4c23-8d90-11e63a2f3d93" d="M29.34,32.77a2,2,0,0,1,1.09,1.71,1.33,1.33,0,0,0-.08-1.2A1.1,1.1,0,0,0,29.34,32.77Z"/>
        <path class="f47f4f04-d241-4c23-8d90-11e63a2f3d93" d="M28.85,33c.07.3.42.43.69.55,0,0-.09.6.2.68s.25-.37.25-.37a1.76,1.76,0,0,1,.24.71,1,1,0,0,1-.21-.08,1.14,1.14,0,0,0,.28.22,1.4,1.4,0,0,0-.28-1C29.64,33.25,29.14,33.29,28.85,33Z"/>
        <path class="f47f4f04-d241-4c23-8d90-11e63a2f3d93" d="M32.35,36.62a2.37,2.37,0,0,1-1.06,0,1,1,0,0,1-.54-.39c0,.89,1.07.86,1.07.86s1.07,0,1.07-.86A1,1,0,0,1,32.35,36.62Z"/>
        <path class="f47f4f04-d241-4c23-8d90-11e63a2f3d93" d="M32.32,38c0-.2.21-.15.34-.23a.66.66,0,0,0,.32-.56.85.85,0,0,1,0,.73C32.73,38.25,32.32,38.27,32.32,38Z"/>
        <path class="f47f4f04-d241-4c23-8d90-11e63a2f3d93" d="M31.28,38c0-.2-.21-.15-.35-.23a.71.71,0,0,1-.32-.56.83.83,0,0,0,0,.73C30.87,38.25,31.27,38.27,31.28,38Z"/>
        <path class="f47f4f04-d241-4c23-8d90-11e63a2f3d93" d="M33.12,32.16c-.37,0-.95-.1-1.25.18a.13.13,0,0,1-.18,0c-.3-.28-.88-.18-1.25-.18a1.3,1.3,0,0,1-.74-.26c.26.59.88.5,1.33.56a.9.9,0,0,1,.58.45.2.2,0,0,0,.34,0,.9.9,0,0,1,.58-.45c.45-.06,1.08,0,1.34-.56A1.35,1.35,0,0,1,33.12,32.16Z"/>
        <g>
          <path class="f47f4f04-d241-4c23-8d90-11e63a2f3d93" d="M39.48,26.31a4.59,4.59,0,0,1-3.84,5.16l.79.51S40.58,30.36,39.48,26.31Z"/>
          <path class="f47f4f04-d241-4c23-8d90-11e63a2f3d93" d="M24.08,26.31C23,30.36,27.13,32,27.13,32l.79-.51A4.6,4.6,0,0,1,24.08,26.31Z"/>
        </g>
        <path class="f47f4f04-d241-4c23-8d90-11e63a2f3d93" d="M40.46,33.53a6.62,6.62,0,0,1-2.8-1.18,6.66,6.66,0,0,0,1.27-1A4.77,4.77,0,0,0,40.5,27.9,4.6,4.6,0,0,0,39,24.17a3.63,3.63,0,0,0-1.55-.8l-.87-.17.73.51a3.25,3.25,0,0,1,1.49,2.85A4.5,4.5,0,0,1,36.67,30a3,3,0,0,1-3.52-.25l-.07,0a1.6,1.6,0,0,0-1.3-.05,1.6,1.6,0,0,0-1.3.05l-.07,0a3,3,0,0,1-3.52.25,4.47,4.47,0,0,1-2.09-3.43,3.21,3.21,0,0,1,1.49-2.85L27,23.2l-.87.17a3.68,3.68,0,0,0-1.55.8,4.6,4.6,0,0,0-1.53,3.73,4.77,4.77,0,0,0,1.57,3.48,6.66,6.66,0,0,0,1.27,1,6.57,6.57,0,0,1-2.8,1.18l-.3,0,.17.25c0,.06,1,1.42,3.55.49a2.23,2.23,0,0,0,1.5.48c-.11.86,0,2.21,1.17,2.63V38.8a.7.7,0,0,0,.27.56.79.79,0,0,0,.72.06,2.12,2.12,0,0,0,1.59.63h.09a2,2,0,0,0,1.49-.64,1.1,1.1,0,0,0,.38.07.61.61,0,0,0,.36-.11.69.69,0,0,0,.28-.57V37.43c1.14-.42,1.28-1.77,1.17-2.63a2.23,2.23,0,0,0,1.5-.48,4.85,4.85,0,0,0,1.63.32,2.33,2.33,0,0,0,1.92-.81l.18-.25Zm-8.61,6.14a1.81,1.81,0,0,1-1.27-.4,3,3,0,0,1,1.2-.29,2.91,2.91,0,0,1,1.19.28A1.72,1.72,0,0,1,31.85,39.67Zm5.22-5.75-.11,0-.09.08a1.86,1.86,0,0,1-1.52.42l-.29-.05.06.28a3.87,3.87,0,0,1,0,1.13,1.47,1.47,0,0,1-1,1.37l-.14,0v1.67a.36.36,0,0,1-.1.25.64.64,0,0,1-.51-.05,3.82,3.82,0,0,0-1.59-.42,3.89,3.89,0,0,0-1.59.42.63.63,0,0,1-.51,0,.33.33,0,0,1-.1-.25V37.14l-.14,0a1.48,1.48,0,0,1-1-1.37,3.87,3.87,0,0,1,0-1.13l.06-.28-.28.05A1.9,1.9,0,0,1,26.69,34l-.09-.09-.11.05c-1.66.64-2.57.22-3-.08a7.06,7.06,0,0,0,2.86-1.36l.26-.19-.29-.14s-2.9-1.39-2.9-4.25a4.25,4.25,0,0,1,1.38-3.43,3,3,0,0,1,.37-.28,3.47,3.47,0,0,0-.79,2.38,4.83,4.83,0,0,0,2.29,3.75,3.44,3.44,0,0,0,1.77.52,3.63,3.63,0,0,0,2.16-.79l.07,0a1.35,1.35,0,0,1,1,0l.07,0,.07,0c.17-.07.74-.22,1,0l.07,0a3.38,3.38,0,0,0,3.93.27,4.81,4.81,0,0,0,2.29-3.75,3.45,3.45,0,0,0-.79-2.38,4,4,0,0,1,1.75,3.71c0,2.85-2.86,4.24-2.9,4.25l-.29.14.26.19A7.13,7.13,0,0,0,40,33.84C39.64,34.14,38.73,34.56,37.07,33.92Z"/>
        <g>
          <path class="f47f4f04-d241-4c23-8d90-11e63a2f3d93" d="M31.73,42.64c.36,0,.89-1.27.91-1.61s-.09-.39-.3.09-.39.81-.69.79-.57-1.12-.82-1,.13.6.25.84S31.37,42.67,31.73,42.64Z"/>
          <path class="f47f4f04-d241-4c23-8d90-11e63a2f3d93" d="M30.7,42.46c-.27,0-.06,1.73.22,1.73S31,42.5,30.7,42.46Z"/>
          <path class="f47f4f04-d241-4c23-8d90-11e63a2f3d93" d="M31.34,46.35c.16,0,.06-1.69-.22-1.73S31.06,46.36,31.34,46.35Z"/>
          <path class="f47f4f04-d241-4c23-8d90-11e63a2f3d93" d="M32.78,42.36c-.36,0-.55.54-.67,1S32,47,32,47.52s-.3.43-.34.27,0-.76-.29-.76-.26.09-.25.48.22,1.15.73,1.15.55-1.73.53-3.17a7.71,7.71,0,0,1,.26-2.41c0-.16.11,0,.33-.09S33.14,42.36,32.78,42.36Z"/>
        </g>
      </g>
      <g>
        <g>
          <path class="f47f4f04-d241-4c23-8d90-11e63a2f3d93" d="M30.45,71.35l-.15-.09a2.31,2.31,0,0,0-.7-.24,6.16,6.16,0,0,0-1.11-.09H24.42v.92h.07c.51,0,.76.12.76.36v4.57c0,.24-.25.36-.76.36h-.07v.92h3.93v-.92h-.07a3,3,0,0,1-.6,0c-.29-.07-.37-.2-.37-.31v-1.4h1.18a5.34,5.34,0,0,0,1.12-.12,2.51,2.51,0,0,0,.56-.22h0a1.34,1.34,0,0,0,.28-.18,1.86,1.86,0,0,0,.53-.73,2.91,2.91,0,0,0,.18-1.08A2.64,2.64,0,0,0,31,72,1.54,1.54,0,0,0,30.45,71.35Zm-2.77.74h.37a1.27,1.27,0,0,1,.91.25,1,1,0,0,1,.25.71A1.36,1.36,0,0,1,29,74a1.22,1.22,0,0,1-.91.27h-.37Z"/>
          <path class="f47f4f04-d241-4c23-8d90-11e63a2f3d93" d="M36.35,74.33v.92h.07c.51,0,.77.12.77.36v.45a.7.7,0,0,1-.11.38,1.12,1.12,0,0,1-.32.29,1.71,1.71,0,0,1-.48.18,1.59,1.59,0,0,1-.39.07h-.17a2.83,2.83,0,0,1-.74-.09h0a1.09,1.09,0,0,1-.56-.36,1.88,1.88,0,0,1-.37-.75,5.57,5.57,0,0,1-.13-1.29,3.53,3.53,0,0,1,.44-1.91A1.37,1.37,0,0,1,35.1,72a2.09,2.09,0,0,1,.69-.1H36a1.46,1.46,0,0,1,.93.38,2,2,0,0,1,.56,1.1v.06l.36,0,.72-.06V70.93h-1l-.1.24-.06.14,0,0a2.33,2.33,0,0,0-.35-.22,2.2,2.2,0,0,0-.41-.18,3.82,3.82,0,0,0-1.08-.17h-.2A4.5,4.5,0,0,0,34,71a3.15,3.15,0,0,0-1.11.67,3.27,3.27,0,0,0-.77,1.15,5.27,5.27,0,0,0,0,3.42,3.17,3.17,0,0,0,.76,1.16,2.91,2.91,0,0,0,1.09.63,4,4,0,0,0,1.23.19h.2a3.53,3.53,0,0,0,.6-.07,3.18,3.18,0,0,0,.63-.17l.27-.12.2-.12.21-.18,0,.08.05.15.1.28h1.29V75.61c0-.16.12-.27.37-.32a1.54,1.54,0,0,1,.4,0h.07v-.92Z"/>
        </g>
        <g>
          <path class="b1eeafd6-179f-4d11-b580-f389de4ed480" d="M28.9,71a7.27,7.27,0,0,1,1.1.08,2,2,0,0,1,.81.32,1.49,1.49,0,0,1,.51.62,2.5,2.5,0,0,1,.17,1,2.75,2.75,0,0,1-.17,1,1.74,1.74,0,0,1-.51.7,1.9,1.9,0,0,1-.81.38,4.63,4.63,0,0,1-1.1.12H27.64v1.48c0,.29.35.44,1.05.44V78H24.9v-.77c.56,0,.84-.15.84-.44V72.21c0-.29-.28-.43-.84-.43V71Zm-1.26,1v2.3h.82a1.25,1.25,0,0,0,1-.3,1.38,1.38,0,0,0,.27-1,1,1,0,0,0-.27-.76,1.3,1.3,0,0,0-1-.28Z"/>
          <path class="b1eeafd6-179f-4d11-b580-f389de4ed480" d="M38.88,73.3l-1,.09a2.14,2.14,0,0,0-.58-1.15,1.63,1.63,0,0,0-1.15-.4,1.65,1.65,0,0,0-1.5.69,3.56,3.56,0,0,0-.45,2,5.1,5.1,0,0,0,.13,1.3,1.77,1.77,0,0,0,.38.79,1.21,1.21,0,0,0,.59.38,2.65,2.65,0,0,0,.77.11,2.73,2.73,0,0,0,.59-.07,2.18,2.18,0,0,0,.49-.2,1.18,1.18,0,0,0,.35-.31.74.74,0,0,0,.12-.42v-.45c0-.29-.28-.43-.84-.43v-.77h3.09v.77c-.57,0-.85.14-.85.43V78H37.91l-.2-.59a1.28,1.28,0,0,1-.29.27,1.89,1.89,0,0,1-.45.23,3.07,3.07,0,0,1-.62.17,3.71,3.71,0,0,1-.78.07A4.13,4.13,0,0,1,34.36,78a2.77,2.77,0,0,1-1.06-.62,3.06,3.06,0,0,1-.75-1.12,4.8,4.8,0,0,1-.28-1.72,4.52,4.52,0,0,1,.28-1.65,3,3,0,0,1,.75-1.13,2.79,2.79,0,0,1,1.09-.64,4,4,0,0,1,1.29-.21,4.1,4.1,0,0,1,1.25.17,2.2,2.2,0,0,1,.82.46L38,71h.93Z"/>
        </g>
        <g>
          <path class="f47f4f04-d241-4c23-8d90-11e63a2f3d93" d="M29.43,72.23a1.42,1.42,0,0,0-1-.29h-.89v2.44h.89a1.37,1.37,0,0,0,1-.31,1.45,1.45,0,0,0,.3-1A1.1,1.1,0,0,0,29.43,72.23ZM29.32,74a.74.74,0,0,1-.38.21h0a1.82,1.82,0,0,1-.35.06h-.91V72.09h.93a1.7,1.7,0,0,1,.35.06.76.76,0,0,1,.37.19,1,1,0,0,1,.25.71A1.3,1.3,0,0,1,29.32,74Zm.11-1.73a1.42,1.42,0,0,0-1-.29h-.89v2.44h.89a1.37,1.37,0,0,0,1-.31,1.45,1.45,0,0,0,.3-1A1.1,1.1,0,0,0,29.43,72.23ZM29.32,74a.74.74,0,0,1-.38.21h0a1.82,1.82,0,0,1-.35.06h-.91V72.09h.93a1.7,1.7,0,0,1,.35.06.76.76,0,0,1,.37.19,1,1,0,0,1,.25.71A1.3,1.3,0,0,1,29.32,74Zm.11-1.73a1.42,1.42,0,0,0-1-.29h-.89v2.44h.89a1.37,1.37,0,0,0,1-.31,1.45,1.45,0,0,0,.3-1A1.1,1.1,0,0,0,29.43,72.23ZM29.32,74a.74.74,0,0,1-.38.21h0a1.82,1.82,0,0,1-.35.06h-.91V72.09h.93a1.7,1.7,0,0,1,.35.06.76.76,0,0,1,.37.19,1,1,0,0,1,.25.71A1.3,1.3,0,0,1,29.32,74Zm.11-1.73a1.42,1.42,0,0,0-1-.29h-.89v2.44h.89a1.37,1.37,0,0,0,1-.31,1.45,1.45,0,0,0,.3-1A1.1,1.1,0,0,0,29.43,72.23ZM29.32,74a.74.74,0,0,1-.38.21h0a1.82,1.82,0,0,1-.35.06h-.91V72.09h.93a1.7,1.7,0,0,1,.35.06.76.76,0,0,1,.37.19,1,1,0,0,1,.25.71A1.3,1.3,0,0,1,29.32,74Zm2-2a1.54,1.54,0,0,0-.53-.65A2.22,2.22,0,0,0,30,71a6.23,6.23,0,0,0-1.11-.09H24.79v.92H25c.43,0,.64.13.64.35v4.57c0,.22-.21.34-.64.36h-.19v.92h3.93v-.92h-.07c-.8,0-1-.19-1-.36v-1.4h1.18A5.24,5.24,0,0,0,30,75.26a2.23,2.23,0,0,0,.85-.4,1.86,1.86,0,0,0,.53-.73,2.91,2.91,0,0,0,.18-1.08A2.64,2.64,0,0,0,31.35,72Zm-.14,2.07a1.58,1.58,0,0,1-.48.67,1.77,1.77,0,0,1-.56.3h0l-.23.07a3,3,0,0,1-.45.08,6.07,6.07,0,0,1-.63,0H27.53v1.55a.37.37,0,0,0,.15.31.71.71,0,0,0,.23.12,1.59,1.59,0,0,0,.3.06h.36v.62H24.94v-.62c.55,0,.83-.18.83-.51V72.21c0-.32-.28-.49-.83-.5v-.63h3.92a7.3,7.3,0,0,1,.84,0l.24,0a1.9,1.9,0,0,1,.36.09,1.44,1.44,0,0,1,.43.21,1.34,1.34,0,0,1,.48.59,2.52,2.52,0,0,1,.17,1A2.79,2.79,0,0,1,31.21,74.07Zm-2.79-2.13h-.89v2.44h.89a1.37,1.37,0,0,0,1-.31,1.45,1.45,0,0,0,.3-1,1.1,1.1,0,0,0-.3-.82A1.42,1.42,0,0,0,28.42,71.94Zm.9,2a.74.74,0,0,1-.38.21h0a1.82,1.82,0,0,1-.35.06h-.91V72.09h.93a1.7,1.7,0,0,1,.35.06.76.76,0,0,1,.37.19,1,1,0,0,1,.25.71A1.3,1.3,0,0,1,29.32,74Zm.11-1.73a1.42,1.42,0,0,0-1-.29h-.89v2.44h.89a1.37,1.37,0,0,0,1-.31,1.45,1.45,0,0,0,.3-1A1.1,1.1,0,0,0,29.43,72.23ZM29.32,74a.74.74,0,0,1-.38.21h0a1.82,1.82,0,0,1-.35.06h-.91V72.09h.93a1.7,1.7,0,0,1,.35.06.76.76,0,0,1,.37.19,1,1,0,0,1,.25.71A1.3,1.3,0,0,1,29.32,74Zm.11-1.73a1.42,1.42,0,0,0-1-.29h-.89v2.44h.89a1.37,1.37,0,0,0,1-.31,1.45,1.45,0,0,0,.3-1A1.1,1.1,0,0,0,29.43,72.23ZM29.32,74a.74.74,0,0,1-.38.21h0a1.82,1.82,0,0,1-.35.06h-.91V72.09h.93a1.7,1.7,0,0,1,.35.06.76.76,0,0,1,.37.19,1,1,0,0,1,.25.71A1.3,1.3,0,0,1,29.32,74Zm.11-1.73a1.42,1.42,0,0,0-1-.29h-.89v2.44h.89a1.37,1.37,0,0,0,1-.31,1.45,1.45,0,0,0,.3-1A1.1,1.1,0,0,0,29.43,72.23ZM29.32,74a.74.74,0,0,1-.38.21h0a1.82,1.82,0,0,1-.35.06h-.91V72.09h.93a1.7,1.7,0,0,1,.35.06.76.76,0,0,1,.37.19,1,1,0,0,1,.25.71A1.3,1.3,0,0,1,29.32,74Zm.11-1.73a1.42,1.42,0,0,0-1-.29h-.89v2.44h.89a1.37,1.37,0,0,0,1-.31,1.45,1.45,0,0,0,.3-1A1.1,1.1,0,0,0,29.43,72.23ZM29.32,74a.74.74,0,0,1-.38.21h0a1.82,1.82,0,0,1-.35.06h-.91V72.09h.93a1.7,1.7,0,0,1,.35.06.76.76,0,0,1,.37.19,1,1,0,0,1,.25.71A1.3,1.3,0,0,1,29.32,74Z"/>
          <path class="f47f4f04-d241-4c23-8d90-11e63a2f3d93" d="M36.71,74.33v.92h.08c.51,0,.77.12.77.36v.45a.7.7,0,0,1-.11.38,1.12,1.12,0,0,1-.32.29,1.71,1.71,0,0,1-.48.18,2.12,2.12,0,0,1-.57.07h-.19a2.84,2.84,0,0,1-.55-.1,1.16,1.16,0,0,1-.57-.36,1.87,1.87,0,0,1-.36-.75,5.07,5.07,0,0,1-.13-1.29,3.53,3.53,0,0,1,.44-1.91A1.52,1.52,0,0,1,36,71.92h.2a1.56,1.56,0,0,1,1.1.39,2,2,0,0,1,.55,1.1v.06l1.08-.09V70.93h-1l-.19.43-.28-.19a3.48,3.48,0,0,0-.48-.21,4,4,0,0,0-1.28-.18h-.17a4.08,4.08,0,0,0-1.15.2,3.15,3.15,0,0,0-1.11.67,3.27,3.27,0,0,0-.77,1.15,4.48,4.48,0,0,0-.28,1.68,4.65,4.65,0,0,0,.29,1.74,3.17,3.17,0,0,0,.76,1.16A2.91,2.91,0,0,0,34.3,78a4.21,4.21,0,0,0,1.06.19h.17a4,4,0,0,0,.8-.07A3.18,3.18,0,0,0,37,78a2.36,2.36,0,0,0,.39-.19l.08,0,.21-.18.18.51h1.29V75.61c0-.24.26-.36.77-.36H40v-.92Zm3.09.78h-.22a.89.89,0,0,0-.47.17.39.39,0,0,0-.15.32v2.3h-1l-.22-.66-.09.11a1.34,1.34,0,0,1-.27.25l0,0a1.78,1.78,0,0,1-.39.2l0,0a3.47,3.47,0,0,1-.56.15,4.54,4.54,0,0,1-.77.06,4,4,0,0,1-1.19-.18,2.69,2.69,0,0,1-1-.6,3.16,3.16,0,0,1-.73-1.1,4.64,4.64,0,0,1-.27-1.69,4.32,4.32,0,0,1,.27-1.62,2.91,2.91,0,0,1,.73-1.1,2.72,2.72,0,0,1,1.06-.63,3.85,3.85,0,0,1,1.27-.21,4,4,0,0,1,1.23.17l.09,0a2.7,2.7,0,0,1,.38.17,2,2,0,0,1,.32.23l.08.07.22-.53h.8v2.15l-.22,0-.59.06a2.05,2.05,0,0,0-.59-1.12,1.71,1.71,0,0,0-1.2-.43A2,2,0,0,0,35.1,72a1.56,1.56,0,0,0-.51.48,3.71,3.71,0,0,0-.46,2,5.27,5.27,0,0,0,.14,1.32,2,2,0,0,0,.39.82,1.35,1.35,0,0,0,.32.27,1.2,1.2,0,0,0,.31.13,2.52,2.52,0,0,0,.79.11,2.37,2.37,0,0,0,.61-.07,2,2,0,0,0,.51-.21,1.19,1.19,0,0,0,.37-.33.81.81,0,0,0,.14-.46v-.45c0-.32-.29-.49-.85-.5v-.63H39.8Z"/>
        </g>
      </g>
    </g>
  </g>
</svg>
