<svg id="b1e7dc70-17ef-42b8-b237-f717c90bf582" data-name="Layer 1" xmlns="http://www.w3.org/2000/svg" width="170" height="110" viewBox="0 0 170 110">
  <defs>
    <style>
      .b687607c-ae51-46b8-abf1-3e0f9d5d8004 {
        fill: #009d3c;
      }

      .b6a9db2e-70ba-47e5-92a1-5e46f1fa3e01 {
        fill: #fbc800;
      }

      .b16c4168-ce9d-4803-a8b0-4b607b1e1556 {
        fill: #fff;
      }
    </style>
  </defs>
  <title>client logo</title>
  <g>
    <g>
      <path d="M70.42,48.81H68.83v3.95a8.67,8.67,0,0,1-2.35,0V41l.12-.1L69,40.81h1.45a4.3,4.3,0,0,1,3,1,3.84,3.84,0,0,1,1.12,3,4.63,4.63,0,0,1-.3,1.72,3.38,3.38,0,0,1-.83,1.25,3.79,3.79,0,0,1-1.29.77A5,5,0,0,1,70.42,48.81ZM68.83,42.6V47L70,47a4.7,4.7,0,0,0,.81-.06,1.46,1.46,0,0,0,.57-.23,1.37,1.37,0,0,0,.42-.49,2.08,2.08,0,0,0,.26-.67,3.22,3.22,0,0,0,.09-.76A3.55,3.55,0,0,0,72,44a1.89,1.89,0,0,0-.29-.7,1.59,1.59,0,0,0-.55-.51,1.87,1.87,0,0,0-.87-.19h-.87A5.83,5.83,0,0,1,68.83,42.6Z"/>
      <path d="M79,49.78v1.08l1.21,0h4.26a4.75,4.75,0,0,1,0,.85,1.3,1.3,0,0,1-1.49,1.11H78a1.28,1.28,0,0,1-1-.37,1.41,1.41,0,0,1-.36-1V41l.12-.13h7.25a4.59,4.59,0,0,1,.09.93,3.06,3.06,0,0,1-.19,1H79v3l1.13,0h2.94a3,3,0,0,1,.14,1,2.93,2.93,0,0,1-.14.95H79Z"/>
      <path d="M90.91,44.1v8.66a8.11,8.11,0,0,1-1.18.08,8,8,0,0,1-1.17-.08V44.1l0-1.29-1.06,0H85.59a4.78,4.78,0,0,1-.09-1,4.88,4.88,0,0,1,.09-1H93.9a3.58,3.58,0,0,1,.12.95.92.92,0,0,1-.3.76,1.51,1.51,0,0,1-1,.24H92l-1.06,0Z"/>
      <path d="M103.86,44.46a3.51,3.51,0,0,1-.17,1.09,3.17,3.17,0,0,1-.46.92,3.63,3.63,0,0,1-.69.72,3,3,0,0,1-.86.46,1.62,1.62,0,0,1,.76.53,3.73,3.73,0,0,1,.53,1l.64,1.75a4.39,4.39,0,0,0,.35.75,1.81,1.81,0,0,0,.47.52,1.51,1.51,0,0,1-.65.5,2.26,2.26,0,0,1-1,.2,1.13,1.13,0,0,1-.83-.32,3.07,3.07,0,0,1-.57-1.06l-.73-2.07a2.35,2.35,0,0,0-.58-.93,1.52,1.52,0,0,0-1-.32H98v4.56l-.54.06c-.2,0-.41,0-.64,0a7.4,7.4,0,0,1-1.13-.08V41l.12-.1,2.39-.06h1.57a4.42,4.42,0,0,1,3,.94A3.35,3.35,0,0,1,103.86,44.46ZM98,42.57v3.82c.6,0,1.13,0,1.6,0a1.65,1.65,0,0,0,1.86-1.88,1.65,1.65,0,0,0-1.86-1.87h-.93Z"/>
      <path d="M107.33,51.94q-1.86-1.61-1.86-5.11a9.53,9.53,0,0,1,.34-2.63,5.5,5.5,0,0,1,1-1.93,4.3,4.3,0,0,1,1.59-1.21,5,5,0,0,1,2.12-.42,5.11,5.11,0,0,1,2.12.42,4.23,4.23,0,0,1,1.57,1.21,5.29,5.29,0,0,1,1,1.94,10.23,10.23,0,0,1,0,5.23,5.46,5.46,0,0,1-1,1.94,4.2,4.2,0,0,1-1.57,1.2,5.11,5.11,0,0,1-2.12.42A4.83,4.83,0,0,1,107.33,51.94Zm5.74-5.11q0-4.36-2.57-4.36t-2.58,4.36q0,4.35,2.58,4.35T113.07,46.83Z"/>
      <path d="M126.82,52.17a1.75,1.75,0,0,1-1.56.73,1.24,1.24,0,0,1-.92-.32,2.79,2.79,0,0,1-.54-1.06l-.8-2.27a3.12,3.12,0,0,0-.72-1.28,1.55,1.55,0,0,0-1.1-.38l-1,0v5.13a8.6,8.6,0,0,1-2.34,0V40.88a8.6,8.6,0,0,1,2.34,0v4.78h.7a.61.61,0,0,0,.41-.12,1.32,1.32,0,0,0,.31-.42l1.92-3.44a2.19,2.19,0,0,1,.52-.67,1.15,1.15,0,0,1,.73-.2c.32,0,.79,0,1.41.07l.14.17L124,45.26a3.51,3.51,0,0,1-.85,1.08,2.23,2.23,0,0,1,1.25.67,4.43,4.43,0,0,1,.77,1.38l.81,2.33c.08.21.13.34.15.38s0,.13.11.27a2.29,2.29,0,0,0,.38.6Z"/>
      <path d="M128.68,52.76V40.88a7,7,0,0,1,1.15-.08,8.1,8.1,0,0,1,1.2.08V52.76a8.1,8.1,0,0,1-1.2.08A7,7,0,0,1,128.68,52.76Z"/>
      <path d="M133.79,52.72l.92-11.82a9.34,9.34,0,0,1,1.54-.12,8.8,8.8,0,0,1,1.51.12l1.33,4.82q.54,2.14.66,3h.13q.12-.82.66-3l1.32-4.82a9.81,9.81,0,0,1,3.06,0l.92,11.82a4.57,4.57,0,0,1-1.12.12,6.63,6.63,0,0,1-1.09-.07l-.33-5.58c-.09-1.43-.14-2.69-.14-3.77H143L141,51a7.75,7.75,0,0,1-1.19.09,7.56,7.56,0,0,1-1.19-.09l-2-7.56h-.12c0,1.43-.07,2.68-.14,3.77L136,52.77a6.63,6.63,0,0,1-1.09.07A4.63,4.63,0,0,1,133.79,52.72Z"/>
      <path d="M148.62,52.76V40.88a7,7,0,0,1,1.15-.08,8.1,8.1,0,0,1,1.2.08V52.76a8.1,8.1,0,0,1-1.2.08A7,7,0,0,1,148.62,52.76Z"/>
      <path d="M160,50.06l-.86,0h-2.43l-.85,0-.82,2.71a4.54,4.54,0,0,1-1,.09A3,3,0,0,1,153,52.7l-.09-.12,3.88-11.7a12,12,0,0,1,1.39-.08,7.08,7.08,0,0,1,1.3.1l3.81,11.7a2.31,2.31,0,0,1-1.21.3,1.59,1.59,0,0,1-1-.26,2.14,2.14,0,0,1-.51-1Zm-3.57-1.84.78,0h1.5l.73,0L159,46.45c-.4-1.32-.71-2.45-.94-3.38h-.11c-.1.5-.36,1.48-.76,2.94Z"/>
      <path d="M71,64.73l2.7,0c1.07,0,1.6.49,1.6,1.48v4.55a13.47,13.47,0,0,1-4.54.73,5.24,5.24,0,0,1-2.2-.43A4.15,4.15,0,0,1,67,69.8a5.35,5.35,0,0,1-.94-1.93,9.25,9.25,0,0,1-.31-2.5,7.79,7.79,0,0,1,.45-2.78,5.7,5.7,0,0,1,1.2-2,4.75,4.75,0,0,1,1.73-1.14,5.71,5.71,0,0,1,2.06-.38,7.19,7.19,0,0,1,4.08,1.25,2.15,2.15,0,0,1-.37,1,2.54,2.54,0,0,1-.7.72,5,5,0,0,0-2.92-1q-3.14,0-3.13,4.26c0,2.84,1,4.25,3.11,4.25a7.92,7.92,0,0,0,1.84-.2V67.84c0-.26,0-.48,0-.67s0-.35,0-.48H72a1.25,1.25,0,0,1-.86-.24,1.07,1.07,0,0,1-.25-.78A2.88,2.88,0,0,1,71,64.73Z"/>
      <path d="M86.11,62.94A3.49,3.49,0,0,1,85.94,64a3.05,3.05,0,0,1-.46.92,3.37,3.37,0,0,1-.69.72,3,3,0,0,1-.86.46,1.53,1.53,0,0,1,.76.54,3.52,3.52,0,0,1,.53,1l.64,1.75a4.39,4.39,0,0,0,.35.75,2,2,0,0,0,.47.52,1.61,1.61,0,0,1-.65.51,2.42,2.42,0,0,1-1,.19,1.17,1.17,0,0,1-.83-.31A3.14,3.14,0,0,1,83.67,70l-.73-2.06a2.22,2.22,0,0,0-.58-.93,1.47,1.47,0,0,0-1-.33H80.25v4.56l-.54.06a6.4,6.4,0,0,1-.64,0,6.23,6.23,0,0,1-1.13-.09V59.44l.12-.1c.94,0,1.73,0,2.39-.05s1.18,0,1.57,0a4.42,4.42,0,0,1,3,.94A3.36,3.36,0,0,1,86.11,62.94ZM80.25,61v3.83c.6,0,1.13-.06,1.6-.06a1.88,1.88,0,0,0,0-3.75h-.93Z"/>
      <path d="M91,68.26v1.07l1.21,0h4.26a4.75,4.75,0,0,1-.05.85,1.3,1.3,0,0,1-1.49,1.11H90a1.28,1.28,0,0,1-1-.37,1.41,1.41,0,0,1-.36-1V59.48l.12-.12H96a4.59,4.59,0,0,1,.09.93,3,3,0,0,1-.19,1H91v3l1.13,0H95a2.78,2.78,0,0,1,.14,1,2.68,2.68,0,0,1-.14,1H91Z"/>
      <path d="M97.7,70.19a2.73,2.73,0,0,1,.32-1,2.83,2.83,0,0,1,.62-.79,6.46,6.46,0,0,0,3.51,1.15,2,2,0,0,0,1.32-.39,1.2,1.2,0,0,0,.49-1c0-.68-.47-1.2-1.34-1.59l-2.05-.86a4.29,4.29,0,0,1-1.82-1.3,2.88,2.88,0,0,1-.61-1.82,3.31,3.31,0,0,1,.3-1.42,3.11,3.11,0,0,1,.87-1.11,4.51,4.51,0,0,1,1.34-.72,5.43,5.43,0,0,1,1.71-.26,8.05,8.05,0,0,1,3.76,1,2.5,2.5,0,0,1-.82,1.77,7.54,7.54,0,0,0-3.06-.82,1.94,1.94,0,0,0-1.28.38,1.22,1.22,0,0,0-.44.94c0,.53.41,1,1.23,1.31l2,.87a4.67,4.67,0,0,1,1.93,1.37,3,3,0,0,1,.68,2,3.67,3.67,0,0,1-.28,1.45,3,3,0,0,1-.84,1.15,4.28,4.28,0,0,1-1.41.74,6.52,6.52,0,0,1-2,.27A7.58,7.58,0,0,1,97.7,70.19Z"/>
      <path d="M108.65,71.23V59.36a6,6,0,0,1,1.15-.09,6.83,6.83,0,0,1,1.2.09V71.23a6.83,6.83,0,0,1-1.2.09A6,6,0,0,1,108.65,71.23Z"/>
      <path d="M123.05,70.64a1.77,1.77,0,0,1-1.57.73,1.25,1.25,0,0,1-.91-.31A3,3,0,0,1,120,70l-.79-2.27a3.12,3.12,0,0,0-.72-1.28,1.56,1.56,0,0,0-1.1-.37l-1,0v5.13a7.65,7.65,0,0,1-2.34,0V59.36a7.65,7.65,0,0,1,2.34,0v4.78l.69,0a.68.68,0,0,0,.42-.11,1.54,1.54,0,0,0,.31-.43l1.92-3.44a2,2,0,0,1,.52-.67,1.22,1.22,0,0,1,.73-.2c.32,0,.78,0,1.41.07l.14.17-2.36,4.23a3.58,3.58,0,0,1-.85,1.07,2.23,2.23,0,0,1,1.25.67,4.38,4.38,0,0,1,.76,1.39l.82,2.33c.08.2.13.33.14.37l.12.27a2.4,2.4,0,0,0,.38.61Z"/>
    </g>
    <g>
      <path class="b687607c-ae51-46b8-abf1-3e0f9d5d8004" d="M66.38,81.68a1.43,1.43,0,0,1,.15-.47,1.26,1.26,0,0,1,.29-.37,3.11,3.11,0,0,0,1.67.54.92.92,0,0,0,.62-.19.54.54,0,0,0,.23-.46q0-.48-.63-.75l-1-.41a2.1,2.1,0,0,1-.87-.62,1.37,1.37,0,0,1-.28-.86,1.47,1.47,0,0,1,.55-1.19,2.07,2.07,0,0,1,.64-.35,2.55,2.55,0,0,1,.81-.12,3.88,3.88,0,0,1,1.78.45,1.19,1.19,0,0,1-.39.84,3.67,3.67,0,0,0-1.45-.38.92.92,0,0,0-.61.18.55.55,0,0,0-.21.44c0,.25.2.46.59.62l1,.41a2.2,2.2,0,0,1,.91.65,1.43,1.43,0,0,1,.33.93,1.74,1.74,0,0,1-.14.69,1.32,1.32,0,0,1-.4.54,1.82,1.82,0,0,1-.66.36,3.3,3.3,0,0,1-1,.13A3.6,3.6,0,0,1,66.38,81.68Z"/>
      <path class="b687607c-ae51-46b8-abf1-3e0f9d5d8004" d="M75.73,78.43a2.31,2.31,0,0,1,.58,1.7,3,3,0,0,1-.12.89,1.84,1.84,0,0,1-.36.68,1.55,1.55,0,0,1-.58.43,2,2,0,0,1-1.56,0,1.55,1.55,0,0,1-.58-.43,2.19,2.19,0,0,1-.36-.68,3,3,0,0,1-.12-.89,2.4,2.4,0,0,1,.48-1.58A1.65,1.65,0,0,1,74.47,78,1.76,1.76,0,0,1,75.73,78.43Zm-1.26.35c-.49,0-.73.45-.73,1.35s.24,1.34.73,1.34.73-.45.73-1.34S75,78.78,74.47,78.78Z"/>
      <path class="b687607c-ae51-46b8-abf1-3e0f9d5d8004" d="M80.12,81.38h.25a1.19,1.19,0,0,1,.09.44,2.21,2.21,0,0,1,0,.32,5.62,5.62,0,0,1-.8.07.91.91,0,0,1-.7-.24,1.1,1.1,0,0,1-.22-.76v-5l0-.06h.42a.58.58,0,0,1,.45.15.78.78,0,0,1,.13.52V81C79.77,81.25,79.89,81.38,80.12,81.38Z"/>
      <path class="b687607c-ae51-46b8-abf1-3e0f9d5d8004" d="M82.64,80.84V79a1.41,1.41,0,0,0-.17-.78A1,1,0,0,1,83.1,78a.6.6,0,0,1,.49.17.8.8,0,0,1,.13.51v1.91a1.05,1.05,0,0,0,.09.51.37.37,0,0,0,.34.15,1.14,1.14,0,0,0,.82-.38v-2.8a2.24,2.24,0,0,1,.53,0,2.64,2.64,0,0,1,.55,0V81a.84.84,0,0,0,.23.68,1.25,1.25,0,0,1-.15.31,1,1,0,0,1-.22.24,1,1,0,0,1-.83-.59,1.89,1.89,0,0,1-1.31.59,1,1,0,0,1-.84-.38A1.69,1.69,0,0,1,82.64,80.84Z"/>
      <path class="b687607c-ae51-46b8-abf1-3e0f9d5d8004" d="M88.38,81.88a1.25,1.25,0,0,1,.32-.74,2.41,2.41,0,0,0,1.14.36.82.82,0,0,0,.44-.11.32.32,0,0,0,.17-.29c0-.19-.15-.35-.44-.46l-.46-.17c-.7-.26-1-.66-1-1.21a1.33,1.33,0,0,1,.11-.54,1.2,1.2,0,0,1,.31-.4,1.59,1.59,0,0,1,.48-.26A2.08,2.08,0,0,1,90,78l.35,0a2.66,2.66,0,0,1,.39.07l.38.1.31.12a1.12,1.12,0,0,1-.08.43.69.69,0,0,1-.22.33A2.94,2.94,0,0,0,90,78.76a.57.57,0,0,0-.34.1.34.34,0,0,0-.12.27c0,.17.14.31.41.41l.5.18a1.68,1.68,0,0,1,.81.52,1.13,1.13,0,0,1,.26.76,1.15,1.15,0,0,1-.43.94,2,2,0,0,1-1.25.35A2.92,2.92,0,0,1,88.38,81.88Z"/>
      <path class="b687607c-ae51-46b8-abf1-3e0f9d5d8004" d="M95.16,78.92v3.25a1.09,1.09,0,0,1-.26,0h-.55a1.24,1.24,0,0,1-.27,0V79.3c0-.3-.12-.45-.37-.45h-.1a1.2,1.2,0,0,1,0-.38,1.33,1.33,0,0,1,0-.38l.35,0,.27,0h.14a.75.75,0,0,1,.58.23A.93.93,0,0,1,95.16,78.92ZM93.92,76.5a1.12,1.12,0,0,1,.54-.11,1.58,1.58,0,0,1,.34,0,.51.51,0,0,1,.18.08.25.25,0,0,1,.07.17,1.06,1.06,0,0,1,0,.25c0,.28,0,.44-.1.47a3.07,3.07,0,0,1-.52.08c-.3,0-.48,0-.54-.13a.81.81,0,0,1-.07-.42A1,1,0,0,1,93.92,76.5Z"/>
      <path class="b687607c-ae51-46b8-abf1-3e0f9d5d8004" d="M104.13,80.89h-2l-.39,1.29a2.08,2.08,0,0,1-.49,0,1.46,1.46,0,0,1-.51-.07l0-.06,1.83-5.54a4.65,4.65,0,0,1,.66,0,3.7,3.7,0,0,1,.62,0l1.8,5.55a1.15,1.15,0,0,1-.57.14.71.71,0,0,1-.48-.13,1.06,1.06,0,0,1-.24-.47ZM102.44,80h1.43l-.25-.84c-.19-.62-.34-1.16-.45-1.6h0c0,.24-.17.7-.37,1.4Z"/>
      <path class="b687607c-ae51-46b8-abf1-3e0f9d5d8004" d="M110.34,78.37A.93.93,0,0,1,111,78a1,1,0,0,1,.36.55.85.85,0,0,0-.23.69v2.29a4.9,4.9,0,0,1-.12,1.19,2,2,0,0,1-.34.75,1.27,1.27,0,0,1-.58.39,2.91,2.91,0,0,1-.82.11,3.73,3.73,0,0,1-1.49-.28,1.42,1.42,0,0,1,.07-.43,1.21,1.21,0,0,1,.2-.36,2.45,2.45,0,0,0,1.11.26c.61,0,.92-.33.92-1v-.33a1.58,1.58,0,0,1-1,.37,1.19,1.19,0,0,1-1.09-.56,3.39,3.39,0,0,1-.24-2.47,2.22,2.22,0,0,1,.34-.67,1.68,1.68,0,0,1,.51-.42,1.32,1.32,0,0,1,.62-.15A1.61,1.61,0,0,1,110.34,78.37ZM110.1,81V79.12a1,1,0,0,0-.68-.33.56.56,0,0,0-.51.35,2.19,2.19,0,0,0-.18,1,2,2,0,0,0,.16.94.51.51,0,0,0,.45.3A1,1,0,0,0,110.1,81Z"/>
      <path class="b687607c-ae51-46b8-abf1-3e0f9d5d8004" d="M113.58,78.58a.9.9,0,0,1,.13-.31.92.92,0,0,1,.21-.25,1.06,1.06,0,0,1,.92.74,1.05,1.05,0,0,1,1-.73,2,2,0,0,1,.5.06,1.82,1.82,0,0,1-.27,1,1.43,1.43,0,0,0-.38-.06.89.89,0,0,0-.77.51v2.63a2.93,2.93,0,0,1-.53,0,3.31,3.31,0,0,1-.55,0V79.43A1.08,1.08,0,0,0,113.58,78.58Z"/>
      <path class="b687607c-ae51-46b8-abf1-3e0f9d5d8004" d="M121.21,78.43a2.31,2.31,0,0,1,.59,1.7,3,3,0,0,1-.13.89,1.84,1.84,0,0,1-.36.68,1.47,1.47,0,0,1-.58.43,2,2,0,0,1-1.56,0,1.44,1.44,0,0,1-.57-.43,1.84,1.84,0,0,1-.36-.68,3,3,0,0,1-.13-.89,2.4,2.4,0,0,1,.48-1.58A1.65,1.65,0,0,1,120,78,1.73,1.73,0,0,1,121.21,78.43Zm-1.26.35q-.72,0-.72,1.35c0,.89.24,1.34.72,1.34s.73-.45.73-1.34S120.44,78.78,120,78.78Z"/>
      <path class="b687607c-ae51-46b8-abf1-3e0f9d5d8004" d="M125.44,78.92v3.25a1.09,1.09,0,0,1-.26,0h-.55a1.24,1.24,0,0,1-.27,0V79.3c0-.3-.12-.45-.37-.45h-.1a1.2,1.2,0,0,1,0-.38,1.33,1.33,0,0,1,0-.38l.35,0,.27,0h.14a.75.75,0,0,1,.58.23A.93.93,0,0,1,125.44,78.92ZM124.2,76.5a1.15,1.15,0,0,1,.54-.11,1.58,1.58,0,0,1,.34,0,.51.51,0,0,1,.18.08.25.25,0,0,1,.08.17,2.09,2.09,0,0,1,0,.25c0,.28,0,.44-.1.47a2.87,2.87,0,0,1-.51.08c-.31,0-.49,0-.54-.13a.7.7,0,0,1-.08-.42A1.12,1.12,0,0,1,124.2,76.5Z"/>
      <path class="b687607c-ae51-46b8-abf1-3e0f9d5d8004" d="M131.5,79.42v1.8a1.36,1.36,0,0,0,.18.78,1,1,0,0,1-.64.23.63.63,0,0,1-.48-.16.8.8,0,0,1-.13-.51V79.64a1.1,1.1,0,0,0-.09-.52A.38.38,0,0,0,130,79a1.13,1.13,0,0,0-.82.39v2.8a1.09,1.09,0,0,1-.26,0h-.55a1.09,1.09,0,0,1-.26,0V78.09l0,0h.41a.55.55,0,0,1,.58.49,1.82,1.82,0,0,1,1.19-.52,1,1,0,0,1,.88.38A1.7,1.7,0,0,1,131.5,79.42Z"/>
      <path class="b687607c-ae51-46b8-abf1-3e0f9d5d8004" d="M135.52,78a1.9,1.9,0,0,1,.84.23V76.17l0-.06h.41a.59.59,0,0,1,.46.15.78.78,0,0,1,.13.52V81a.85.85,0,0,0,.23.69.93.93,0,0,1-.14.31.9.9,0,0,1-.21.25,1,1,0,0,1-.78-.49,1.51,1.51,0,0,1-1.18.54,1.17,1.17,0,0,1-.62-.16,1.29,1.29,0,0,1-.45-.42A2.1,2.1,0,0,1,134,81a4,4,0,0,1-.09-.89,2.73,2.73,0,0,1,.13-.89,2,2,0,0,1,.34-.67,1.52,1.52,0,0,1,.52-.43A1.33,1.33,0,0,1,135.52,78Zm.09,3.4a.91.91,0,0,0,.75-.41V79.07a2,2,0,0,0-.35-.18.89.89,0,0,0-.31-.06.58.58,0,0,0-.51.33,2.06,2.06,0,0,0-.19,1,1.89,1.89,0,0,0,.17.94A.5.5,0,0,0,135.61,81.4Z"/>
      <path class="b687607c-ae51-46b8-abf1-3e0f9d5d8004" d="M140.07,80.84V79a1.5,1.5,0,0,0-.17-.78,1,1,0,0,1,.63-.23.6.6,0,0,1,.49.17.87.87,0,0,1,.13.51v1.91a1.05,1.05,0,0,0,.09.51.36.36,0,0,0,.34.15,1.1,1.1,0,0,0,.81-.38v-2.8a2.3,2.3,0,0,1,.53,0,2.51,2.51,0,0,1,.55,0V81a.87.87,0,0,0,.23.68,1.19,1.19,0,0,1-.14.31,1,1,0,0,1-.22.24.94.94,0,0,1-.83-.59,1.91,1.91,0,0,1-1.31.59,1,1,0,0,1-.84-.38A1.69,1.69,0,0,1,140.07,80.84Z"/>
      <path class="b687607c-ae51-46b8-abf1-3e0f9d5d8004" d="M145.8,81.88a1.37,1.37,0,0,1,.1-.4,1.33,1.33,0,0,1,.22-.34,2.48,2.48,0,0,0,1.15.36.82.82,0,0,0,.44-.11.34.34,0,0,0,.17-.29c0-.19-.15-.35-.45-.46l-.46-.17c-.69-.26-1-.66-1-1.21a1.33,1.33,0,0,1,.11-.54,1.23,1.23,0,0,1,.32-.4,1.38,1.38,0,0,1,.48-.26,2,2,0,0,1,.62-.09l.35,0a3.06,3.06,0,0,1,.4.07l.37.1.32.12a1.35,1.35,0,0,1-.08.43.7.7,0,0,1-.23.33,2.9,2.9,0,0,0-1.13-.29.54.54,0,0,0-.33.1.32.32,0,0,0-.13.27c0,.17.14.31.42.41l.5.18a1.64,1.64,0,0,1,.8.52A1.14,1.14,0,0,1,149,81a1.16,1.16,0,0,1-.44.94,2,2,0,0,1-1.25.35A3,3,0,0,1,145.8,81.88Z"/>
      <path class="b687607c-ae51-46b8-abf1-3e0f9d5d8004" d="M153.54,78.08a1.28,1.28,0,0,1,.05.38,1.31,1.31,0,0,1-.05.39h-1V81c0,.25.11.38.35.38h.51a1.33,1.33,0,0,1,.08.47,1.57,1.57,0,0,1,0,.29,6.78,6.78,0,0,1-1,.07.88.88,0,0,1-1-1V78.84h-.62a1.48,1.48,0,0,1-.05-.39,1.46,1.46,0,0,1,.05-.38h.62v-.6a.82.82,0,0,1,.13-.51.59.59,0,0,1,.46-.15h.41l.06,0v1.21Z"/>
      <path class="b687607c-ae51-46b8-abf1-3e0f9d5d8004" d="M155.63,78.58a1.19,1.19,0,0,1,.14-.31A.92.92,0,0,1,156,78a1,1,0,0,1,.91.74,1.07,1.07,0,0,1,1.05-.73,1.83,1.83,0,0,1,.49.06,1.82,1.82,0,0,1-.26,1,1.43,1.43,0,0,0-.38-.06.88.88,0,0,0-.77.51v2.63a3,3,0,0,1-.53,0,3.24,3.24,0,0,1-.55,0V79.43A1.05,1.05,0,0,0,155.63,78.58Z"/>
      <path class="b687607c-ae51-46b8-abf1-3e0f9d5d8004" d="M162,78.92v3.25a1.09,1.09,0,0,1-.26,0h-.55a1.24,1.24,0,0,1-.27,0V79.3c0-.3-.12-.45-.37-.45h-.11a1.58,1.58,0,0,1-.05-.38,1.81,1.81,0,0,1,.05-.38l.35,0,.28,0h.14a.75.75,0,0,1,.58.23A.93.93,0,0,1,162,78.92Zm-1.24-2.42a1.09,1.09,0,0,1,.54-.11,1.42,1.42,0,0,1,.33,0,.49.49,0,0,1,.19.08.25.25,0,0,1,.07.17,2.11,2.11,0,0,1,0,.25c0,.28-.05.44-.1.47a3.29,3.29,0,0,1-.52.08c-.31,0-.49,0-.54-.13a.78.78,0,0,1-.08-.42A1,1,0,0,1,160.72,76.5Z"/>
    </g>
    <g>
      <path class="b687607c-ae51-46b8-abf1-3e0f9d5d8004" d="M56.11,59.11a16.62,16.62,0,0,0-3-6A12.69,12.69,0,0,0,49.3,50a11.1,11.1,0,0,0-4.62-1.41l-1.09,0,1,.45A9.67,9.67,0,0,1,47,50.71a7.65,7.65,0,0,1,2.43,5.61c0,4.58-2.18,6.64-4.55,8.73a6.12,6.12,0,0,0-1-1.8,5,5,0,0,0-4.63-1.77l-.95.11.9.32a3.07,3.07,0,0,1,2,2.64,3.8,3.8,0,0,1-1.11,2.32,6.43,6.43,0,0,0-1.73,4,3.42,3.42,0,0,0-1.05-.17A2.79,2.79,0,0,0,35,71.87a2.47,2.47,0,0,0-1.53-1.33c-1.08-.28-1.46-.73-1.51-.88l-.22-.5-.22.5c-.08.18-.42.6-1.51.88a2.49,2.49,0,0,0-1.53,1.33,2.79,2.79,0,0,0-2.26-1.14,3.47,3.47,0,0,0-1.05.17,6.38,6.38,0,0,0-1.73-4,3.8,3.8,0,0,1-1.11-2.32,3.07,3.07,0,0,1,2-2.64l.91-.32-1-.11a5,5,0,0,0-4.63,1.77,6.37,6.37,0,0,0-1,1.8C16.3,63,14.13,60.9,14.13,56.32a7.64,7.64,0,0,1,2.42-5.61A9.43,9.43,0,0,1,19,49l1-.45-1.09,0A11.1,11.1,0,0,0,14.26,50a12.69,12.69,0,0,0-3.79,3.15,16.6,16.6,0,0,0-3,6A16.35,16.35,0,0,0,9.7,73.31a12.75,12.75,0,0,0,9.58,5.5A9.66,9.66,0,0,0,20,79.89c1.88,2.58,3.84,3.63,6.78,3.63a8.18,8.18,0,0,0,5-1.72,8.18,8.18,0,0,0,5,1.72c2.94,0,4.9-1,6.78-3.63a11.53,11.53,0,0,0,.7-1.08,12.76,12.76,0,0,0,9.58-5.5A16.41,16.41,0,0,0,56.11,59.11Z"/>
      <path d="M56.11,59.11a16.62,16.62,0,0,0-3-6A12.69,12.69,0,0,0,49.3,50a11.1,11.1,0,0,0-4.62-1.41l-1.09,0,1,.45A9.67,9.67,0,0,1,47,50.71a7.65,7.65,0,0,1,2.43,5.61c0,4.58-2.18,6.64-4.55,8.73a6.12,6.12,0,0,0-1-1.8,5,5,0,0,0-4.63-1.77l-.95.11.9.32a3.07,3.07,0,0,1,2,2.64,3.8,3.8,0,0,1-1.11,2.32,6.43,6.43,0,0,0-1.73,4,3.42,3.42,0,0,0-1.05-.17A2.79,2.79,0,0,0,35,71.87a2.47,2.47,0,0,0-1.53-1.33c-1.08-.28-1.46-.73-1.51-.88l-.22-.5-.22.5c-.08.18-.42.6-1.51.88a2.49,2.49,0,0,0-1.53,1.33,2.79,2.79,0,0,0-2.26-1.14,3.47,3.47,0,0,0-1.05.17,6.38,6.38,0,0,0-1.73-4,3.8,3.8,0,0,1-1.11-2.32,3.07,3.07,0,0,1,2-2.64l.91-.32-1-.11a5,5,0,0,0-4.63,1.77,6.37,6.37,0,0,0-1,1.8C16.3,63,14.13,60.9,14.13,56.32a7.64,7.64,0,0,1,2.42-5.61A9.43,9.43,0,0,1,19,49l1-.45-1.09,0A11.1,11.1,0,0,0,14.26,50a12.69,12.69,0,0,0-3.79,3.15,16.6,16.6,0,0,0-3,6A16.35,16.35,0,0,0,9.7,73.31a12.75,12.75,0,0,0,9.58,5.5A9.66,9.66,0,0,0,20,79.89c1.88,2.58,3.84,3.63,6.78,3.63a8.18,8.18,0,0,0,5-1.72,8.18,8.18,0,0,0,5,1.72c2.94,0,4.9-1,6.78-3.63a11.53,11.53,0,0,0,.7-1.08,12.76,12.76,0,0,0,9.58-5.5A16.41,16.41,0,0,0,56.11,59.11ZM10.05,73.05A16,16,0,0,1,7.88,59.23a16.08,16.08,0,0,1,2.93-5.83,12,12,0,0,1,7-4.27,10.79,10.79,0,0,0-1.57,1.27,8.21,8.21,0,0,0-2.55,5.92c0,4.91,2.38,7,4.9,9.25l.77.69A5.67,5.67,0,0,1,21,72.35a2.83,2.83,0,0,1-2.66,2,2.94,2.94,0,0,1-2.24-.88,2.74,2.74,0,0,1-.71-1.86,2,2,0,0,1,1.88-2.13,1.33,1.33,0,0,1,1.05.44,1.52,1.52,0,0,1,.35,1,1.25,1.25,0,0,1-1.3,1.33v.44a1.7,1.7,0,0,0,1.31-.56,1.83,1.83,0,0,0,.43-1.21,1.79,1.79,0,0,0-1.84-1.86A2.38,2.38,0,0,0,15,71.64a3.18,3.18,0,0,0,.83,2.16,3.28,3.28,0,0,0,2.34,1A9,9,0,0,0,19,78.35,12.36,12.36,0,0,1,10.05,73.05Zm33.19,6.58a8.62,8.62,0,0,1-2.7,2.57,7.38,7.38,0,0,1-3.73.88,7.72,7.72,0,0,1-4.88-1.73l-.15-.12-.15.12a7.72,7.72,0,0,1-4.88,1.73A7.38,7.38,0,0,1,23,82.2a8.72,8.72,0,0,1-2.7-2.57,8.83,8.83,0,0,1-1.76-4.82,3.32,3.32,0,0,0,2.85-2.3,5.69,5.69,0,0,0,.19-3.31,6.44,6.44,0,0,0-1.94-3.27L19,65.37a5.56,5.56,0,0,1,1-1.85,4.41,4.41,0,0,1,3.43-1.63,2.46,2.46,0,0,0-.39.29,3,3,0,0,0-1.16,2.37,4.13,4.13,0,0,0,1.21,2.59,6,6,0,0,1,1.64,4.08v.36l.32-.16a2.52,2.52,0,0,1,3.29,1l.25.4.14-.46A2.3,2.3,0,0,1,30.16,71a3.4,3.4,0,0,0,1.62-.82A3.4,3.4,0,0,0,33.4,71a2.27,2.27,0,0,1,1.38,1.42l.14.46.26-.4a2.52,2.52,0,0,1,3.29-1l.31.16v-.36a6,6,0,0,1,1.64-4.08,4.13,4.13,0,0,0,1.21-2.59,3,3,0,0,0-1.15-2.37,3.07,3.07,0,0,0-.4-.29,4.41,4.41,0,0,1,3.43,1.63,5.85,5.85,0,0,1,1,1.85l-.63.56A6.31,6.31,0,0,0,42,69.2a5.69,5.69,0,0,0,.18,3.31A3.33,3.33,0,0,0,45,74.81,8.83,8.83,0,0,1,43.24,79.63Zm10.27-6.58a12.34,12.34,0,0,1-9,5.3,8.84,8.84,0,0,0,.92-3.54,3.28,3.28,0,0,0,2.34-1,3.18,3.18,0,0,0,.83-2.16,2.38,2.38,0,0,0-2.32-2.57,1.79,1.79,0,0,0-1.84,1.86,1.83,1.83,0,0,0,.43,1.21,1.7,1.7,0,0,0,1.31.56v-.44a1.25,1.25,0,0,1-1.3-1.33,1.52,1.52,0,0,1,.35-1,1.34,1.34,0,0,1,1-.44,2,2,0,0,1,1.88,2.13,2.74,2.74,0,0,1-.71,1.86,2.92,2.92,0,0,1-2.24.88,2.85,2.85,0,0,1-2.66-2,5.69,5.69,0,0,1,1.64-6.09l.77-.69c2.52-2.23,4.91-4.34,4.91-9.25a8.18,8.18,0,0,0-2.56-5.92,10.79,10.79,0,0,0-1.57-1.27,12.24,12.24,0,0,1,3.36,1.22,12.39,12.39,0,0,1,3.65,3,16.92,16.92,0,0,1,.75,19.65Z"/>
      <g>
        <path class="b6a9db2e-70ba-47e5-92a1-5e46f1fa3e01" d="M39.34,38.88a6.63,6.63,0,0,0,.29-1.69,3.09,3.09,0,0,0-1.25-2.87c-1.06-.69-1.85-1.1-2.42-1.41a5.22,5.22,0,0,1-1.06-.63,3.77,3.77,0,0,1-.3-.34,3.41,3.41,0,0,0-2.82-1.42A3.37,3.37,0,0,0,29,31.94l-.31.34a5.39,5.39,0,0,1-1.05.63c-.58.31-1.37.72-2.43,1.41a3.09,3.09,0,0,0-1.25,2.87,7.13,7.13,0,0,0,.29,1.69c-.52.76-1.44,2.17-1.44,5.8A8.24,8.24,0,0,0,24.1,49.1a7.78,7.78,0,0,0,1.27,1.53,37.46,37.46,0,0,0,1.49,5.51,10.74,10.74,0,0,0-.4,2,5.16,5.16,0,0,0,.18,1.26,6.84,6.84,0,0,1,.21,1.35,18.71,18.71,0,0,1-1,3.91c-.08.22-.16.45-.25.67-.29.75-.54,1.39-.15,1.7a.77.77,0,0,0,.74.15,1.11,1.11,0,0,0,.89.28,1.74,1.74,0,0,0,1.55-1.26s0-.37,0-.84A1.59,1.59,0,0,0,30,64a14.46,14.46,0,0,0-.09-2.41,11.14,11.14,0,0,1,0-3.1,7,7,0,0,1,.43-1A4.32,4.32,0,0,0,31,55.43v-1.6c.29.37.55.57.8.57s.49-.21.79-.59v1.62a4.32,4.32,0,0,0,.65,2.13,7,7,0,0,1,.43,1,11.55,11.55,0,0,1,0,3.1A13.44,13.44,0,0,0,33.52,64,1.57,1.57,0,0,0,35,65.36c0,.47,0,.79,0,.84a1.74,1.74,0,0,0,1.56,1.26,1.1,1.1,0,0,0,.88-.28A.77.77,0,0,0,38.1,67c.39-.31.14-1-.15-1.7l-.25-.67a19.21,19.21,0,0,1-1-3.91,6.79,6.79,0,0,1,.2-1.35,5.76,5.76,0,0,0,.19-1.26,11.5,11.5,0,0,0-.41-2,37.46,37.46,0,0,0,1.49-5.51,7.78,7.78,0,0,0,1.27-1.53,8.24,8.24,0,0,0,1.32-4.42C40.78,41.05,39.86,39.64,39.34,38.88Z"/>
        <path d="M39.34,38.88a7.13,7.13,0,0,0,.29-1.69,3.09,3.09,0,0,0-1.25-2.87c-1.06-.69-1.85-1.1-2.42-1.41a5.22,5.22,0,0,1-1.06-.63,3.77,3.77,0,0,1-.3-.34,3.41,3.41,0,0,0-2.82-1.42A3.37,3.37,0,0,0,29,31.94l-.31.34a5.39,5.39,0,0,1-1.05.63c-.58.31-1.37.72-2.43,1.41a3.09,3.09,0,0,0-1.25,2.87,7.13,7.13,0,0,0,.29,1.69c-.52.76-1.44,2.17-1.44,5.8A8.24,8.24,0,0,0,24.1,49.1a7.78,7.78,0,0,0,1.27,1.53,37.46,37.46,0,0,0,1.49,5.51,10.74,10.74,0,0,0-.4,2,5.16,5.16,0,0,0,.18,1.26,6.84,6.84,0,0,1,.21,1.35,18.71,18.71,0,0,1-1,3.91c-.08.22-.16.45-.25.67-.29.75-.54,1.39-.15,1.7a.77.77,0,0,0,.74.15,1.11,1.11,0,0,0,.89.28,1.74,1.74,0,0,0,1.55-1.26s0-.37,0-.84A1.59,1.59,0,0,0,30,64a14.46,14.46,0,0,0-.09-2.41,11.14,11.14,0,0,1,0-3.1,7,7,0,0,1,.43-1A4.32,4.32,0,0,0,31,55.43v-1.6c.29.37.55.57.8.57s.49-.21.79-.59v1.62a4.32,4.32,0,0,0,.65,2.13,7,7,0,0,1,.43,1,11.55,11.55,0,0,1,0,3.1A13.44,13.44,0,0,0,33.52,64,1.57,1.57,0,0,0,35,65.36c0,.47,0,.79,0,.84a1.74,1.74,0,0,0,1.55,1.26,1.11,1.11,0,0,0,.89-.28A.77.77,0,0,0,38.1,67c.39-.31.14-1-.15-1.7l-.25-.67a19.21,19.21,0,0,1-1-3.91,6.79,6.79,0,0,1,.2-1.35,5.76,5.76,0,0,0,.19-1.26,11.5,11.5,0,0,0-.41-2,37.46,37.46,0,0,0,1.49-5.51,7.78,7.78,0,0,0,1.27-1.53,8.24,8.24,0,0,0,1.32-4.42C40.78,41.05,39.86,39.64,39.34,38.88ZM30.59,55.43a4,4,0,0,1-.6,2,6.32,6.32,0,0,0-.46,1,11.35,11.35,0,0,0,0,3.26,12.65,12.65,0,0,1,.1,2.31,1.2,1.2,0,0,1-1,1c-.05-1.52-.14-3.94-.15-4.33a23.55,23.55,0,0,0,1.06-2.76,8.69,8.69,0,0,0-.09-2.45,12,12,0,0,0,.17-1.92,10.11,10.11,0,0,0-.15-2c.16.24.33.52.5.79s.45.74.65,1ZM33.9,64A13.39,13.39,0,0,1,34,61.67a11.07,11.07,0,0,0,0-3.26,8.72,8.72,0,0,0-.46-1,4,4,0,0,1-.6-2V53.28c.18-.28.39-.6.61-1l.55-.86A11.06,11.06,0,0,0,34,53.51a12,12,0,0,0,.17,1.92,9.09,9.09,0,0,0-.09,2.45,23.55,23.55,0,0,0,1.06,2.76C35.1,61,35,63.45,35,65A1.2,1.2,0,0,1,33.9,64Zm4-13.59-.06,0v.08a38,38,0,0,1-1.5,5.55l0,.06v.06a10.6,10.6,0,0,1,.41,2,5.15,5.15,0,0,1-.18,1.16,7.38,7.38,0,0,0-.21,1.43,20.14,20.14,0,0,0,1,4l.25.69c.2.5.44,1.13.27,1.26a.38.38,0,0,1-.47,0l-.28-.2,0,.33c0,.06-.17.18-.62.18a1.45,1.45,0,0,1-1.16-.88c0-.17.12-3.73.19-5.59v0l0,0a24.35,24.35,0,0,1-1-2.74,9.25,9.25,0,0,1,.09-2.33v-.08a12.24,12.24,0,0,1,.12-4.58l.12-.45-.4.24a5.69,5.69,0,0,0-1.12,1.52c-.29.48-.59,1-.87,1.34-.42.55-.57.57-.59.57-.33,0-1.07-1.23-1.52-2a5.54,5.54,0,0,0-1.05-1.47l-.41-.24.12.45A11.69,11.69,0,0,1,29,55.38v.08a9.11,9.11,0,0,1,.1,2.33,26,26,0,0,1-1.06,2.74l0,0v0c.07,1.86.2,5.42.2,5.59a1.49,1.49,0,0,1-1.17.88c-.45,0-.59-.12-.61-.18l0-.33-.28.2a.37.37,0,0,1-.47,0c-.17-.13.08-.76.27-1.26.09-.23.18-.46.25-.69a20.14,20.14,0,0,0,1-4A7.38,7.38,0,0,0,27,59.32a5.15,5.15,0,0,1-.18-1.16,10.6,10.6,0,0,1,.41-2v-.06l0-.06a37,37,0,0,1-1.49-5.55v-.08l-.06,0a8,8,0,0,1-2.51-5.71c0-3.59.91-4.92,1.41-5.63l.07-.11,0-.09s-1.05-3,.77-4.2a26.37,26.37,0,0,1,2.4-1.4,5.8,5.8,0,0,0,1.13-.69,3.17,3.17,0,0,0,.34-.37,3.12,3.12,0,0,1,5,0,4.38,4.38,0,0,0,.34.37,5.63,5.63,0,0,0,1.14.69,25.17,25.17,0,0,1,2.39,1.4c1.82,1.19.79,4.17.77,4.2l0,.09.08.11c.49.71,1.4,2,1.4,5.63A8,8,0,0,1,37.88,50.39Z"/>
        <path class="b6a9db2e-70ba-47e5-92a1-5e46f1fa3e01" d="M33.73,42.29a1.42,1.42,0,0,1-.5-.11,3.39,3.39,0,0,0-1.45-.39,3.59,3.59,0,0,0-1.45.39.94.94,0,0,1-.87,0,.71.71,0,0,1-.27-.57V40.24c-1.14-.42-1.28-1.77-1.17-2.63a2.23,2.23,0,0,1-1.5-.48C24,38.06,23,36.7,23,36.64l-.17-.25.3,0a6.67,6.67,0,0,0,2.81-1.17,7.24,7.24,0,0,1-1.28-1,4.8,4.8,0,0,1-1.57-3.48A4.62,4.62,0,0,1,24.59,27a3.83,3.83,0,0,1,1.55-.8L27,26l-.72.52a3.19,3.19,0,0,0-1.49,2.84,4.49,4.49,0,0,0,2.09,3.44,3,3,0,0,0,3.52-.26l.07,0a1.64,1.64,0,0,1,1.3,0,1.64,1.64,0,0,1,1.3,0l.07,0a3,3,0,0,0,3.52.26,4.52,4.52,0,0,0,2.1-3.44,3.23,3.23,0,0,0-1.49-2.84L36.55,26l.87.17A3.77,3.77,0,0,1,39,27a4.62,4.62,0,0,1,1.53,3.74,4.8,4.8,0,0,1-1.57,3.48,7.63,7.63,0,0,1-1.27,1,6.62,6.62,0,0,0,2.8,1.17l.31,0-.18.25a2.32,2.32,0,0,1-1.92.82A4.65,4.65,0,0,1,37,37.13a2.23,2.23,0,0,1-1.5.48c.11.86,0,2.21-1.17,2.63v1.38a.71.71,0,0,1-.28.57A.61.61,0,0,1,33.73,42.29Z"/>
        <path d="M34.2,35.58a2,2,0,0,0-1.08,1.72,1.34,1.34,0,0,1,.07-1.21A1.12,1.12,0,0,1,34.2,35.58Z"/>
        <path d="M34.69,35.77c-.07.29-.42.42-.69.54,0,0,.09.6-.2.68s-.25-.37-.25-.37a2,2,0,0,0-.24.72l.21-.09a.94.94,0,0,1-.28.22,1.35,1.35,0,0,1,.29-1C33.9,36.06,34.4,36.11,34.69,35.77Z"/>
        <path d="M29.34,35.58a2,2,0,0,1,1.09,1.72,1.36,1.36,0,0,0-.08-1.21A1.12,1.12,0,0,0,29.34,35.58Z"/>
        <path d="M28.85,35.77c.07.29.42.42.69.54,0,0-.09.6.2.68s.25-.37.25-.37a1.84,1.84,0,0,1,.24.72L30,37.25a.94.94,0,0,0,.28.22,1.37,1.37,0,0,0-.28-1C29.64,36.06,29.14,36.11,28.85,35.77Z"/>
        <path d="M32.35,39.43a2,2,0,0,1-1.06,0,1,1,0,0,1-.54-.38c0,.88,1.07.86,1.07.86s1.07,0,1.07-.86A1,1,0,0,1,32.35,39.43Z"/>
        <path d="M32.32,40.79c0-.2.21-.15.34-.23A.66.66,0,0,0,33,40a.87.87,0,0,1,0,.74C32.73,41.07,32.32,41.09,32.32,40.79Z"/>
        <path d="M31.28,40.79c0-.2-.21-.15-.35-.23a.71.71,0,0,1-.32-.56.85.85,0,0,0,0,.74C30.87,41.07,31.27,41.09,31.28,40.79Z"/>
        <path d="M33.12,35c-.37,0-.95-.1-1.25.17a.13.13,0,0,1-.18,0c-.3-.27-.88-.17-1.25-.17a1.3,1.3,0,0,1-.74-.26c.26.59.88.49,1.33.55a.89.89,0,0,1,.58.46.21.21,0,0,0,.34,0,.89.89,0,0,1,.58-.46c.45-.06,1.08,0,1.34-.55A1.35,1.35,0,0,1,33.12,35Z"/>
        <g>
          <path d="M39.48,29.12a4.59,4.59,0,0,1-3.84,5.16l.79.51S40.58,33.17,39.48,29.12Z"/>
          <path d="M24.08,29.12c-1.1,4.05,3.05,5.67,3.05,5.67l.79-.51A4.6,4.6,0,0,1,24.08,29.12Z"/>
        </g>
        <path d="M40.46,36.34a6.62,6.62,0,0,1-2.8-1.17,7.63,7.63,0,0,0,1.27-1,4.8,4.8,0,0,0,1.57-3.48A4.62,4.62,0,0,0,39,27a3.77,3.77,0,0,0-1.55-.8L36.55,26l.73.52a3.23,3.23,0,0,1,1.49,2.84,4.52,4.52,0,0,1-2.1,3.44,3,3,0,0,1-3.52-.26l-.07,0a1.64,1.64,0,0,0-1.3,0,1.64,1.64,0,0,0-1.3,0l-.07,0a3,3,0,0,1-3.52.26,4.49,4.49,0,0,1-2.09-3.44,3.19,3.19,0,0,1,1.49-2.84L27,26l-.87.17a3.83,3.83,0,0,0-1.55.8,4.62,4.62,0,0,0-1.53,3.74,4.8,4.8,0,0,0,1.57,3.48,7.63,7.63,0,0,0,1.27,1,6.57,6.57,0,0,1-2.8,1.17l-.3,0,.17.25c0,.06,1,1.42,3.55.49a2.23,2.23,0,0,0,1.5.48c-.11.86,0,2.21,1.17,2.63v1.37a.71.71,0,0,0,.27.57.83.83,0,0,0,.72,0,2.09,2.09,0,0,0,1.59.64h.09a2,2,0,0,0,1.49-.65,1.1,1.1,0,0,0,.38.07.61.61,0,0,0,.36-.1.71.71,0,0,0,.28-.57V40.24c1.14-.42,1.28-1.77,1.17-2.63a2.23,2.23,0,0,0,1.5-.48,4.65,4.65,0,0,0,1.63.33,2.32,2.32,0,0,0,1.92-.82l.18-.25Zm-8.61,6.14a1.86,1.86,0,0,1-1.27-.39,2.93,2.93,0,0,1,1.2-.3,2.8,2.8,0,0,1,1.19.29A1.72,1.72,0,0,1,31.85,42.48Zm5.22-5.75-.11,0-.09.08a1.81,1.81,0,0,1-1.52.43l-.29-.06.06.29a3.8,3.8,0,0,1,0,1.13,1.45,1.45,0,0,1-1,1.36L34,40v1.66a.35.35,0,0,1-.1.25.6.6,0,0,1-.51,0,3.76,3.76,0,0,0-1.59-.41,4,4,0,0,0-1.59.41c-.23.09-.41.11-.51,0a.33.33,0,0,1-.1-.24V40l-.14,0a1.47,1.47,0,0,1-1-1.36,3.8,3.8,0,0,1,0-1.13l.06-.29-.28.06a1.89,1.89,0,0,1-1.53-.43l-.09-.08-.11,0c-1.66.65-2.57.22-3-.08a7.19,7.19,0,0,0,2.86-1.35l.26-.19L26.35,35s-2.9-1.4-2.9-4.25a4.24,4.24,0,0,1,1.38-3.43A3.12,3.12,0,0,1,25.2,27a3.48,3.48,0,0,0-.79,2.39,4.85,4.85,0,0,0,2.29,3.75,3.42,3.42,0,0,0,1.77.51,3.7,3.7,0,0,0,2.16-.78l.07,0a1.35,1.35,0,0,1,1,0l.07,0,.07,0c.17-.06.74-.21,1,0l.07,0a3.38,3.38,0,0,0,3.93.27,4.82,4.82,0,0,0,2.29-3.75A3.48,3.48,0,0,0,38.36,27l.36.27a4.26,4.26,0,0,1,1.39,3.45c0,2.84-2.86,4.23-2.9,4.25l-.29.14.26.19A7.26,7.26,0,0,0,40,36.65C39.64,37,38.73,37.38,37.07,36.73Z"/>
        <g>
          <path d="M31.73,45.45c.36,0,.89-1.26.91-1.61s-.09-.39-.3.09-.39.82-.69.8-.57-1.12-.82-1,.13.59.25.84S31.37,45.48,31.73,45.45Z"/>
          <path d="M30.7,45.27c-.27,0-.06,1.74.22,1.73S31,45.31,30.7,45.27Z"/>
          <path d="M31.34,49.16c.16,0,.06-1.69-.22-1.72S31.06,49.17,31.34,49.16Z"/>
          <path d="M32.78,45.18c-.36,0-.55.53-.67,1S32,49.85,32,50.34s-.3.42-.34.27,0-.77-.29-.77-.26.09-.25.49.22,1.14.73,1.14.55-1.73.53-3.17a7.71,7.71,0,0,1,.26-2.41c0-.15.11,0,.33-.08S33.14,45.18,32.78,45.18Z"/>
        </g>
      </g>
      <g>
        <g>
          <path d="M30.45,74.16l-.15-.09a2.31,2.31,0,0,0-.7-.24,7.31,7.31,0,0,0-1.11-.08H24.42v.92h.07c.51,0,.76.12.76.35V79.6c0,.24-.25.36-.76.36h-.07v.91h3.93V80h-.07a2.3,2.3,0,0,1-.6-.06c-.29-.07-.37-.19-.37-.3V78.19h1.18a4.75,4.75,0,0,0,1.12-.12,2.49,2.49,0,0,0,.56-.21h0a2,2,0,0,0,.28-.19,1.79,1.79,0,0,0,.53-.73,2.91,2.91,0,0,0,.18-1.08,2.59,2.59,0,0,0-.18-1A1.51,1.51,0,0,0,30.45,74.16Zm-2.77.74h.37a1.32,1.32,0,0,1,.91.25,1,1,0,0,1,.25.71,1.39,1.39,0,0,1-.25.92,1.27,1.27,0,0,1-.91.26h-.37Z"/>
          <path d="M36.35,77.15v.92h.07c.51,0,.77.12.77.35v.46a.67.67,0,0,1-.11.37,1.12,1.12,0,0,1-.32.29,2.09,2.09,0,0,1-.48.19,2.28,2.28,0,0,1-.39.06h-.17a2.82,2.82,0,0,1-.74-.1h0a1.18,1.18,0,0,1-.56-.37,1.81,1.81,0,0,1-.37-.75,5.54,5.54,0,0,1-.13-1.28,3.57,3.57,0,0,1,.44-1.92,1.42,1.42,0,0,1,.75-.56,2.39,2.39,0,0,1,.69-.1H36a1.51,1.51,0,0,1,.93.38,2,2,0,0,1,.56,1.1v.07l.36,0,.72-.07V73.75h-1l-.1.24-.06.13,0,.06A2.36,2.36,0,0,0,37,74a3.17,3.17,0,0,0-.41-.17,3.81,3.81,0,0,0-1.08-.18h-.2a4.19,4.19,0,0,0-1.32.21,3,3,0,0,0-1.11.66,3.23,3.23,0,0,0-.77,1.16,5.27,5.27,0,0,0,0,3.42,3.21,3.21,0,0,0,.76,1.15,2.78,2.78,0,0,0,1.09.63,4,4,0,0,0,1.23.2h.2A5.07,5.07,0,0,0,36,81a4.05,4.05,0,0,0,.63-.17,1.69,1.69,0,0,0,.27-.13,1.32,1.32,0,0,0,.2-.12l.21-.18,0,.09.05.14.1.28h1.29V78.42c0-.16.12-.27.37-.32a2.25,2.25,0,0,1,.4,0h.07v-.92Z"/>
        </g>
        <g>
          <path class="b16c4168-ce9d-4803-a8b0-4b607b1e1556" d="M28.9,73.82a6.12,6.12,0,0,1,1.1.09,2,2,0,0,1,.81.31,1.52,1.52,0,0,1,.51.63,2.45,2.45,0,0,1,.17,1,2.75,2.75,0,0,1-.17,1,1.74,1.74,0,0,1-.51.7A2,2,0,0,1,30,78a4.66,4.66,0,0,1-1.1.11H27.64V79.6c0,.29.35.43,1.05.43v.77H24.9V80c.56,0,.84-.14.84-.43V75c0-.28-.28-.43-.84-.43v-.77Zm-1.26,1v2.29h.82a1.29,1.29,0,0,0,1-.29,1.42,1.42,0,0,0,.27-1,1,1,0,0,0-.27-.76,1.34,1.34,0,0,0-1-.27Z"/>
          <path class="b16c4168-ce9d-4803-a8b0-4b607b1e1556" d="M38.88,76.11l-1,.09a2.07,2.07,0,0,0-.58-1.14,1.63,1.63,0,0,0-1.15-.41,1.65,1.65,0,0,0-1.5.69,3.62,3.62,0,0,0-.45,2,5.21,5.21,0,0,0,.13,1.3,1.78,1.78,0,0,0,.38.78,1.23,1.23,0,0,0,.59.39,2.66,2.66,0,0,0,.77.1,2.22,2.22,0,0,0,.59-.07,1.8,1.8,0,0,0,.49-.2,1,1,0,0,0,.35-.31.73.73,0,0,0,.12-.41v-.46c0-.28-.28-.43-.84-.43v-.77h3.09V78c-.57,0-.85.15-.85.43V80.8H37.91l-.2-.58a1.26,1.26,0,0,1-.29.26,1.89,1.89,0,0,1-.45.24,3.91,3.91,0,0,1-.62.17,4.58,4.58,0,0,1-.78.06,3.83,3.83,0,0,1-1.21-.19,2.75,2.75,0,0,1-1.06-.61A3.1,3.1,0,0,1,32.55,79a4.78,4.78,0,0,1-.28-1.71,4.54,4.54,0,0,1,.28-1.66,3,3,0,0,1,.75-1.12,2.81,2.81,0,0,1,1.09-.65,4,4,0,0,1,1.29-.21,3.8,3.8,0,0,1,1.25.18,2.07,2.07,0,0,1,.82.45l.2-.48h.93Z"/>
        </g>
        <g>
          <path d="M29.43,75.05a1.37,1.37,0,0,0-1-.3h-.89v2.44h.89a1.33,1.33,0,0,0,1-.31,1.45,1.45,0,0,0,.3-1A1.08,1.08,0,0,0,29.43,75.05Zm-.11,1.73a.92.92,0,0,1-.38.21h0l-.35.05h-.91V74.9h.93A1.73,1.73,0,0,1,29,75a.86.86,0,0,1,.37.19,1,1,0,0,1,.25.71A1.33,1.33,0,0,1,29.32,76.78Zm.11-1.73a1.37,1.37,0,0,0-1-.3h-.89v2.44h.89a1.33,1.33,0,0,0,1-.31,1.45,1.45,0,0,0,.3-1A1.08,1.08,0,0,0,29.43,75.05Zm-.11,1.73a.92.92,0,0,1-.38.21h0l-.35.05h-.91V74.9h.93A1.73,1.73,0,0,1,29,75a.86.86,0,0,1,.37.19,1,1,0,0,1,.25.71A1.33,1.33,0,0,1,29.32,76.78Zm.11-1.73a1.37,1.37,0,0,0-1-.3h-.89v2.44h.89a1.33,1.33,0,0,0,1-.31,1.45,1.45,0,0,0,.3-1A1.08,1.08,0,0,0,29.43,75.05Zm-.11,1.73a.92.92,0,0,1-.38.21h0l-.35.05h-.91V74.9h.93A1.73,1.73,0,0,1,29,75a.86.86,0,0,1,.37.19,1,1,0,0,1,.25.71A1.33,1.33,0,0,1,29.32,76.78Zm.11-1.73a1.37,1.37,0,0,0-1-.3h-.89v2.44h.89a1.33,1.33,0,0,0,1-.31,1.45,1.45,0,0,0,.3-1A1.08,1.08,0,0,0,29.43,75.05Zm-.11,1.73a.92.92,0,0,1-.38.21h0l-.35.05h-.91V74.9h.93A1.73,1.73,0,0,1,29,75a.86.86,0,0,1,.37.19,1,1,0,0,1,.25.71A1.33,1.33,0,0,1,29.32,76.78Zm2-2a1.51,1.51,0,0,0-.53-.66,2.22,2.22,0,0,0-.85-.33,7.41,7.41,0,0,0-1.11-.08H24.79v.92H25c.43,0,.64.14.64.35V79.6c0,.22-.21.34-.64.35h-.19v.91h3.93V80h-.07c-.8,0-1-.2-1-.36V78.19h1.18A4.66,4.66,0,0,0,30,78.07a2.23,2.23,0,0,0,.85-.4,1.79,1.79,0,0,0,.53-.73,2.91,2.91,0,0,0,.18-1.08A2.59,2.59,0,0,0,31.35,74.82Zm-.14,2.06a1.58,1.58,0,0,1-.48.67,2,2,0,0,1-.56.31h0l-.23.07a3,3,0,0,1-.45.07,4.17,4.17,0,0,1-.63,0H27.53V79.6a.37.37,0,0,0,.15.3.71.71,0,0,0,.23.12,1.59,1.59,0,0,0,.3.06l.14,0h.22v.63H24.94V80.1c.55,0,.83-.18.83-.5V75c0-.32-.28-.49-.83-.5V73.9h3.92a7.39,7.39,0,0,1,.84,0l.24,0a1.9,1.9,0,0,1,.36.09,2.15,2.15,0,0,1,.43.21,1.43,1.43,0,0,1,.48.6,2.46,2.46,0,0,1,.17,1A2.75,2.75,0,0,1,31.21,76.88Zm-2.79-2.13h-.89v2.44h.89a1.33,1.33,0,0,0,1-.31,1.45,1.45,0,0,0,.3-1,1.08,1.08,0,0,0-.3-.81A1.37,1.37,0,0,0,28.42,74.75Zm.9,2a.92.92,0,0,1-.38.21h0l-.35.05h-.91V74.9h.93A1.73,1.73,0,0,1,29,75a.86.86,0,0,1,.37.19,1,1,0,0,1,.25.71A1.33,1.33,0,0,1,29.32,76.78Zm.11-1.73a1.37,1.37,0,0,0-1-.3h-.89v2.44h.89a1.33,1.33,0,0,0,1-.31,1.45,1.45,0,0,0,.3-1A1.08,1.08,0,0,0,29.43,75.05Zm-.11,1.73a.92.92,0,0,1-.38.21h0l-.35.05h-.91V74.9h.93A1.73,1.73,0,0,1,29,75a.86.86,0,0,1,.37.19,1,1,0,0,1,.25.71A1.33,1.33,0,0,1,29.32,76.78Zm.11-1.73a1.37,1.37,0,0,0-1-.3h-.89v2.44h.89a1.33,1.33,0,0,0,1-.31,1.45,1.45,0,0,0,.3-1A1.08,1.08,0,0,0,29.43,75.05Zm-.11,1.73a.92.92,0,0,1-.38.21h0l-.35.05h-.91V74.9h.93A1.73,1.73,0,0,1,29,75a.86.86,0,0,1,.37.19,1,1,0,0,1,.25.71A1.33,1.33,0,0,1,29.32,76.78Zm.11-1.73a1.37,1.37,0,0,0-1-.3h-.89v2.44h.89a1.33,1.33,0,0,0,1-.31,1.45,1.45,0,0,0,.3-1A1.08,1.08,0,0,0,29.43,75.05Zm-.11,1.73a.92.92,0,0,1-.38.21h0l-.35.05h-.91V74.9h.93A1.73,1.73,0,0,1,29,75a.86.86,0,0,1,.37.19,1,1,0,0,1,.25.71A1.33,1.33,0,0,1,29.32,76.78Zm.11-1.73a1.37,1.37,0,0,0-1-.3h-.89v2.44h.89a1.33,1.33,0,0,0,1-.31,1.45,1.45,0,0,0,.3-1A1.08,1.08,0,0,0,29.43,75.05Zm-.11,1.73a.92.92,0,0,1-.38.21h0l-.35.05h-.91V74.9h.93A1.73,1.73,0,0,1,29,75a.86.86,0,0,1,.37.19,1,1,0,0,1,.25.71A1.33,1.33,0,0,1,29.32,76.78Z"/>
          <path d="M36.71,77.15v.92h.08c.51,0,.77.12.77.35v.46a.67.67,0,0,1-.11.37,1.12,1.12,0,0,1-.32.29,2.09,2.09,0,0,1-.48.19,2.62,2.62,0,0,1-.57.07h-.19a2.26,2.26,0,0,1-.55-.09,1.26,1.26,0,0,1-.57-.37,1.81,1.81,0,0,1-.36-.75,5,5,0,0,1-.13-1.28,3.57,3.57,0,0,1,.44-1.92A1.52,1.52,0,0,1,36,74.73h.2a1.56,1.56,0,0,1,1.1.39,2,2,0,0,1,.55,1.1v.07l1.08-.1V73.75h-1l-.19.43A1.38,1.38,0,0,0,37.4,74a3.48,3.48,0,0,0-.48-.21,4,4,0,0,0-1.28-.18h-.17a4.49,4.49,0,0,0-1.15.21,3,3,0,0,0-1.11.66,3.23,3.23,0,0,0-.77,1.16,4.44,4.44,0,0,0-.28,1.68,4.69,4.69,0,0,0,.29,1.74,3.21,3.21,0,0,0,.76,1.15,2.78,2.78,0,0,0,1.09.63,3.81,3.81,0,0,0,1.06.19h.17a4.86,4.86,0,0,0,.8-.07,4.05,4.05,0,0,0,.63-.17,2.36,2.36,0,0,0,.39-.2l.08,0,.21-.18.18.51h1.29V78.42c0-.23.26-.35.77-.35H40v-.92Zm3.09.77h-.22a1,1,0,0,0-.47.17.39.39,0,0,0-.15.32v2.31h-1l-.22-.67-.09.11a1.11,1.11,0,0,1-.27.25l0,0a2.36,2.36,0,0,1-.39.2h0a3.47,3.47,0,0,1-.56.15,4.49,4.49,0,0,1-.77.07,4.05,4.05,0,0,1-1.19-.19,2.69,2.69,0,0,1-1-.6,3,3,0,0,1-.73-1.1,4.58,4.58,0,0,1-.27-1.68,4.38,4.38,0,0,1,.27-1.63,3.07,3.07,0,0,1,.73-1.1A2.85,2.85,0,0,1,34.37,74a4.12,4.12,0,0,1,1.27-.2,3.73,3.73,0,0,1,1.23.17L37,74a2.7,2.7,0,0,1,.38.17,1.57,1.57,0,0,1,.32.24l.08.07L38,73.9h.8v2.15l-.22,0-.59.05A2.09,2.09,0,0,0,37.36,75a1.7,1.7,0,0,0-1.2-.42,2.13,2.13,0,0,0-1.06.24,1.56,1.56,0,0,0-.51.48,3.77,3.77,0,0,0-.46,2,5.33,5.33,0,0,0,.14,1.32,2,2,0,0,0,.39.81,1.35,1.35,0,0,0,.32.27,1.23,1.23,0,0,0,.31.14,2.85,2.85,0,0,0,.79.11,2.4,2.4,0,0,0,1.12-.28,1.19,1.19,0,0,0,.37-.33.83.83,0,0,0,.14-.46v-.46c0-.32-.29-.49-.85-.5V77.3H39.8Z"/>
        </g>
      </g>
    </g>
  </g>
</svg>
