<svg id="bb4469fe-0bd6-4ad9-896d-c520066a580b" data-name="Layer 1" xmlns="http://www.w3.org/2000/svg" width="170" height="110" viewBox="0 0 170 110">
  <defs>
    <style>
      .bd4e0d0e-271f-4195-967a-97c071f794b6 {
        fill: #c4c4c4;
      }

      .f4f7c058-f077-4e9f-ba93-7a65df48a13e {
        fill: #fff;
      }
    </style>
  </defs>
  <title>client logo</title>
  <g>
    <path class="bd4e0d0e-271f-4195-967a-97c071f794b6" d="M145.34,66.67c-11.55,16.45-36.62,29.39-64.8,31.7-36,3-62-12.63-62.43-35.09h0c0-24,44-47.33,87-43.57a134.56,134.56,0,0,1,22.6,3.57A119.12,119.12,0,0,0,112.07,19C86,13.79,60,17.05,41.55,26.33c12.56-7.83,28.72-13.28,46.08-14.7,34.12-2.8,61.06,10.94,64.17,31.48C154,66.73,117.1,87.22,80.54,90.22a100.73,100.73,0,0,1-20-.3,101.15,101.15,0,0,0,14,1.74C104.42,93.35,132.42,82.81,145.34,66.67Z"/>
    <path class="f4f7c058-f077-4e9f-ba93-7a65df48a13e" d="M144.35,26c-1.71-2-4.36-3-8.11-3a13.75,13.75,0,0,0-10.38,4.1l1-3.86H121.1a6.36,6.36,0,0,0-2.16.4l0-.21h-3.14a9.2,9.2,0,0,0-8.37,5.33l2.32-12.07h-4.7a8,8,0,0,0-7.83,6.44l-.34,1.75a10.72,10.72,0,0,0-4.29-.8,10.47,10.47,0,0,0-9.36,5.37c.79-1.59,1.5-3,2.09-4.24l1.51-3.07H81.71a8.1,8.1,0,0,0-7.32,4.65l-2.56,5.42L69.92,21.13,66.41,23c-3.26,1.69-4.75,5.06-4,9l2.11,13.87V46l-1.89,2.68-4.87-.73a8.3,8.3,0,0,0,1.64-3.7l4.85-27.49H59.81a8.45,8.45,0,0,0-8.29,6.85l-.87,4.5H47.51l2-11.35H45a8.4,8.4,0,0,0-8.23,6.8L31.46,51.24H36.7a8,8,0,0,0,7.9-6.63l1.09-6.2h3L46.44,50c-7.89,2.88-16.65,9.55-18,22.17-.61,5.45.73,10.05,4,13.66,4.93,5.51,13.27,7.48,19.42,7.48a18.52,18.52,0,0,0,3.06-.22,54.3,54.3,0,0,0,7.56-2.08c4.62-1.51,9.86-3.21,15.22-3.21.67,0,1.35,0,2,.08,6.59.55,8.83,1.15,9.44,1.36l1,1.13,1.56-1.11c.06,0,5.74-4,11-5a51.34,51.34,0,0,1,8.71-1l5.08.09-3.49-3.68A5.45,5.45,0,0,0,111,78.6a22.5,22.5,0,0,0,2.82.17c12,0,13.94-12.09,14.58-16.07s.1-7-1.68-9.14-4.36-3-8.11-3c-6.67,0-10.43,3.33-12.63,7.11a7.63,7.63,0,0,0-1.75-3.32c-1.71-1.88-4.31-2.79-7.94-2.79a13.78,13.78,0,0,0-13.08,7.93,7.56,7.56,0,0,0-1.5-2.78c-1.7-2-4.35-3-8.1-3A17.25,17.25,0,0,0,70.6,54c.14-.15.28-.3.41-.47.78-1,6.56-12.54,11-21.46A31.62,31.62,0,0,0,80,41c-.34,3.77.33,6.51,2,8.38,1.51,1.66,3.8,2.5,6.78,2.5a11.65,11.65,0,0,0,3.93-.66h10.38l1.49-7.76-1.25,7.41h3.48a8.89,8.89,0,0,0,8.79-7.44l1.42-8.4a2.47,2.47,0,0,1,2.44-2h2.72a34.85,34.85,0,0,0-1.68,6.13c-.76,3.87-.31,6.75,1.39,8.81,1.82,2.22,4.93,3.3,9.48,3.3,12,0,13.94-12.09,14.58-16.07S146.13,28.13,144.35,26ZM59.71,82.85c-.71,0-1.45,0-2.2-.06C43.26,82,43.43,78,43.64,72.81c.28-6.91,2.13-12,5-13.5a4.29,4.29,0,0,1,1.24-.49,6.7,6.7,0,0,1-.27,3.23l-.66,2.64H59.3A38.86,38.86,0,0,0,58,69.84c-.76,3.87-.31,6.75,1.39,8.8s4.27,3,8.05,3.26A29.59,29.59,0,0,1,59.71,82.85ZM78,78.48a15.24,15.24,0,0,0,2.89-4,7.46,7.46,0,0,0,1.14,2,7.91,7.91,0,0,0,.92.91A47.25,47.25,0,0,0,78,78.48Zm22.24-1.8a14.27,14.27,0,0,0,2.85-3.57,7.18,7.18,0,0,0,1.27,2.36,7.69,7.69,0,0,0,2.49,2A53.26,53.26,0,0,0,100.26,76.68Zm13.92-12.14c1.73-5.83,3.06-5.83,3.56-5.83h.08c.33.55.51,2.76-.5,6-1.65,5.33-3.12,5.83-3.43,5.87C113.62,70.29,113,68.56,114.18,64.54Zm-22.32,1c1.73-5.83,3.06-5.83,3.55-5.83h.08a4.42,4.42,0,0,1,.25,2.2l-.12,2.25h7.91c-.13.55-.25,1.07-.35,1.54H95l-.51,1.41c-1.14,3.18-2.29,4.4-3,4.48C91.3,71.29,90.67,69.56,91.86,65.54ZM72.74,61.89h.08c.33.55.5,2.75-.5,6-1.65,5.34-3.13,5.83-3.43,5.88-.27-.31-.9-2,.29-6C70.91,61.89,72.24,61.89,72.74,61.89Zm-9.43-4.06a17.47,17.47,0,0,0-.17-2.58,6.35,6.35,0,0,0,2.45.71A13.07,13.07,0,0,0,63.31,57.83ZM95.51,33c-.33,2.5-1.35,10.11-4.14,10.61h-.05c-.54-1.09,0-5.28.85-7.68.62-1.77,1.72-3.56,2.78-3.56a1.34,1.34,0,0,1,.62.17Zm39.4,4.22c-1.65,5.33-3.13,5.83-3.43,5.87-.27-.3-.9-2,.29-6.05,1.73-5.83,3.06-5.83,3.56-5.83h.08C135.74,31.73,135.91,33.94,134.91,37.19Z"/>
    <path class="f4f7c058-f077-4e9f-ba93-7a65df48a13e" d="M144.35,24.5c-1.71-2-4.36-3-8.11-3a13.75,13.75,0,0,0-10.38,4.1l1-3.87H121.1a6.37,6.37,0,0,0-2.16.41l0-.21h-3.14a9.2,9.2,0,0,0-8.37,5.33l2.32-12.07h-4.7a8,8,0,0,0-7.83,6.44l-.34,1.74a10.73,10.73,0,0,0-4.29-.79A10.45,10.45,0,0,0,83.27,28c.79-1.59,1.5-3,2.09-4.24l1.51-3.07H81.71a8.12,8.12,0,0,0-7.32,4.65l-2.56,5.42L69.92,19.59l-3.51,1.82c-3.26,1.69-4.75,5.07-4,9l2.11,13.86v.14l-1.89,2.69-4.87-.73a8.33,8.33,0,0,0,1.64-3.71l4.85-27.48H59.81a8.45,8.45,0,0,0-8.29,6.85l-.87,4.49H47.51l2-11.34H45A8.4,8.4,0,0,0,36.78,22L31.46,49.7H36.7a8,8,0,0,0,7.9-6.62l1.09-6.2h3L46.44,48.51c-7.89,2.88-16.65,9.54-18,22.17-.61,5.45.73,10,4,13.66,4.93,5.51,13.27,7.47,19.42,7.47a19.78,19.78,0,0,0,3.06-.21,53.08,53.08,0,0,0,7.56-2.09C67,88,72.27,86.3,77.63,86.3c.67,0,1.35,0,2,.09,6.59.55,8.83,1.15,9.44,1.36l1,1.13,1.56-1.11c.06,0,5.74-4,11-5a50.77,50.77,0,0,1,8.71-1l5.08.09-3.49-3.68A5.61,5.61,0,0,0,111,77.06a22.42,22.42,0,0,0,2.82.18c12,0,13.94-12.1,14.58-16.07s.1-7.05-1.68-9.14-4.36-3-8.11-3c-6.67,0-10.43,3.33-12.63,7.11a7.63,7.63,0,0,0-1.75-3.32c-1.71-1.88-4.31-2.79-7.94-2.79A13.78,13.78,0,0,0,83.25,58a7.6,7.6,0,0,0-1.5-2.79c-1.7-2-4.35-3-8.1-3a17.25,17.25,0,0,0-3.05.26c.14-.15.28-.31.41-.47.78-1,6.56-12.54,11-21.46A31.62,31.62,0,0,0,80,39.48c-.34,3.78.33,6.52,2,8.39,1.51,1.66,3.8,2.5,6.78,2.5a11.39,11.39,0,0,0,3.93-.67h10.38l1.49-7.76-1.25,7.41h3.48a8.89,8.89,0,0,0,8.79-7.44l1.42-8.39a2.47,2.47,0,0,1,2.44-2.05h2.72a34.4,34.4,0,0,0-1.68,6.13c-.76,3.87-.31,6.75,1.39,8.8,1.82,2.22,4.93,3.3,9.48,3.3,12,0,13.94-12.09,14.58-16.06S146.13,26.59,144.35,24.5ZM59.71,81.32c-.71,0-1.45,0-2.2-.06-14.25-.76-14.08-4.83-13.87-10,.28-6.91,2.13-12,5-13.5a3.75,3.75,0,0,1,1.24-.49,6.66,6.66,0,0,1-.27,3.22l-.66,2.65H59.3A38.1,38.1,0,0,0,58,68.31c-.76,3.87-.31,6.74,1.39,8.8s4.27,3,8.05,3.26A30,30,0,0,1,59.71,81.32ZM78,76.94a14.92,14.92,0,0,0,2.89-4,7.17,7.17,0,0,0,1.14,2,8,8,0,0,0,.92.92A50.07,50.07,0,0,0,78,76.94Zm22.24-1.79a14.27,14.27,0,0,0,2.85-3.57,7,7,0,0,0,1.27,2.35,7.72,7.72,0,0,0,2.49,2A51.4,51.4,0,0,0,100.26,75.15ZM114.18,63c1.73-5.82,3.06-5.82,3.56-5.82h.08c.33.55.51,2.75-.5,6-1.65,5.34-3.12,5.83-3.43,5.88C113.62,68.75,113,67,114.18,63ZM91.86,64c1.73-5.82,3.06-5.82,3.55-5.82h.08a4.4,4.4,0,0,1,.25,2.2l-.12,2.25h7.91c-.13.55-.25,1.07-.35,1.54H95l-.51,1.41c-1.14,3.18-2.29,4.39-3,4.48C91.3,69.75,90.67,68,91.86,64ZM72.74,60.35h.08c.33.55.5,2.76-.5,6-1.65,5.34-3.13,5.83-3.43,5.88-.27-.31-.9-2,.29-6.06C70.91,60.35,72.24,60.35,72.74,60.35Zm-9.43-4.06a17.33,17.33,0,0,0-.17-2.57,6.34,6.34,0,0,0,2.45.7A13.54,13.54,0,0,0,63.31,56.29Zm32.2-24.86c-.33,2.5-1.35,10.11-4.14,10.62h-.05c-.54-1.09,0-5.28.85-7.68.62-1.77,1.72-3.56,2.78-3.56a1.34,1.34,0,0,1,.62.17Zm39.4,4.22c-1.65,5.34-3.13,5.83-3.43,5.88-.27-.31-.9-2,.29-6.06,1.73-5.82,3.06-5.82,3.56-5.82h.08C135.74,30.2,135.91,32.4,134.91,35.65Z"/>
    <g>
      <path class="bd4e0d0e-271f-4195-967a-97c071f794b6" d="M60.08,68.72c-1.1,5.56.32,9.56,8.78,9.56s11.3-7,12.48-14.27c1.22-7.57-2.44-9.65-7.69-9.65C63.53,54.36,61.18,63.15,60.08,68.72ZM74.35,67c-1.33,4.32-3,7.22-5.33,7.37s-3.6-3-1.88-8.78,3.46-7.5,5.89-7.34S75.69,62.68,74.35,67Z"/>
      <path class="bd4e0d0e-271f-4195-967a-97c071f794b6" d="M104.19,60.5c.59-6.48-2.93-8.31-7.86-8.31-10.12,0-12.48,8.78-13.57,14.35s.31,9.57,8.78,9.57c6.7,0,9.87-4.37,11.48-9.81H96.54c-1.26,3.48-2.83,5.75-4.84,5.89-2.27.15-3.6-3-1.88-8.79s3.46-7.5,5.89-7.34c1.68.1,2.3,2,2.16,4.44Z"/>
      <path class="bd4e0d0e-271f-4195-967a-97c071f794b6" d="M118.65,51.19c-10.12,0-12.47,8.78-13.57,14.35s.32,9.57,8.78,9.57,11.3-7,12.48-14.28C127.56,53.26,123.91,51.19,118.65,51.19Zm.7,12.62c-1.33,4.32-3,7.22-5.33,7.38s-3.6-3-1.88-8.79,3.46-7.5,5.89-7.34C120.62,55.22,120.69,59.5,119.35,63.81Z"/>
      <path class="bd4e0d0e-271f-4195-967a-97c071f794b6" d="M136.24,23.66c-10.12,0-12.47,8.78-13.57,14.35s.32,9.57,8.78,9.57,11.3-7,12.48-14.28C145.15,25.73,141.5,23.66,136.24,23.66Zm.7,12.62c-1.33,4.32-3.05,7.22-5.33,7.38s-3.6-3-1.88-8.79,3.46-7.5,5.89-7.34C138.21,27.69,138.28,32,136.94,36.28Z"/>
      <path class="bd4e0d0e-271f-4195-967a-97c071f794b6" d="M88.86,48.24a8.35,8.35,0,0,0,6.55-2.77l-.51,2.11h6.51l5.81-30.24h-2.13a5.85,5.85,0,0,0-5.74,4.73l-1.07,5.45s-.65-2.79-5.65-2.79c-7.53,0-9.83,7.85-10.47,15C81.57,46.21,84.42,48.24,88.86,48.24Zm1.3-14.56c.7-2,2.25-5,4.79-5,1.22,0,3,.79,2.74,2.51-.47,3.43-1.41,12.12-5.94,12.94S89.45,35.68,90.16,33.68Z"/>
      <path class="bd4e0d0e-271f-4195-967a-97c071f794b6" d="M106.89,47.22a6.8,6.8,0,0,0,6.7-5.66L115,33.15a4.59,4.59,0,0,1,4.53-3.81h3.13l1.45-5.45h-3c-2.43,0-5.14,2.82-5.14,2.82l.47-2.62h-.59a7.08,7.08,0,0,0-7,5.9l-2.93,17.23Z"/>
      <path class="bd4e0d0e-271f-4195-967a-97c071f794b6" d="M63,51a4.13,4.13,0,0,0,6.31-.26c1-1.27,14.12-27.93,14.12-27.93H81.71a6,6,0,0,0-5.4,3.43L70.88,37.75,68.32,22.82l-.93.48c-2.58,1.34-3.43,3.94-2.88,6.79L66.63,44a2.25,2.25,0,0,1-.36,1.69l-1.88,2.68a2.15,2.15,0,0,1-2.07.88l-1-.15Z"/>
      <path class="bd4e0d0e-271f-4195-967a-97c071f794b6" d="M42.51,42.71l1.4-8h7.34L48.78,47.58h2.29a6.35,6.35,0,0,0,6.25-5.25l4.41-25H59.81a6.31,6.31,0,0,0-6.2,5.13l-1.2,6.22H45l2-11.35H45a6.25,6.25,0,0,0-6.14,5.08L34,47.58H36.7A5.91,5.91,0,0,0,42.51,42.71Z"/>
      <path class="bd4e0d0e-271f-4195-967a-97c071f794b6" d="M91.1,77.21c-17.41.53-19.29,6.94-33.71,6.17s-16.17-5-15.88-12.19S43.8,58,47.57,55.91s5.29.18,4.06,5.12h9s2.88-11.88-4.5-12.18S32.39,53.91,30.51,70.91s17.77,19.59,24,18.59S70,83.44,79.81,84.27,90.39,86,90.39,86s6.06-4.29,11.83-5.35a51.11,51.11,0,0,1,9.14-1S108.51,76.68,91.1,77.21Z"/>
    </g>
  </g>
</svg>
