<svg id="Layer_1" data-name="Layer 1" xmlns="http://www.w3.org/2000/svg" viewBox="0 0 166 110"><defs><style>.cls-1{fill:#c4c4c4;}</style></defs><title>logo otten</title><path class="cls-1" d="M73.94,78.63c-2,0-3,1.88-3,4s1.1,3.85,3,3.85,3-1.79,3-4C77,80.61,76,78.63,73.94,78.63Zm0,0c-2,0-3,1.88-3,4s1.1,3.85,3,3.85,3-1.79,3-4C77,80.61,76,78.63,73.94,78.63Zm0,0c-2,0-3,1.88-3,4s1.1,3.85,3,3.85,3-1.79,3-4C77,80.61,76,78.63,73.94,78.63Zm0,0c-2,0-3,1.88-3,4s1.1,3.85,3,3.85,3-1.79,3-4C77,80.61,76,78.63,73.94,78.63Zm52.89,4.91a1.23,1.23,0,0,1-.85-.39h-7a6.36,6.36,0,0,0,1.24-.26s4-.42,5.23-.65-3.24,0-3.24,0-.11-.34.63-.86c.4-.27,0-.29-.36-.23.79-.32,1.52-1.14,2.34-1.19a8.41,8.41,0,0,0,2.34-.56H120.3c.11-.63-.57-1-.57-1l2.84-.23-1.31-.33c.4-.58-.9-1-.9-1-.06-.28-3.93-.57-3.93-.57l11.14-.51H43l2.62.29s-2,.33-2.1,1.13,1.82.4,1.82.69-1.53.62-1.53.62S51,79.68,51,80s-2.11.28-2.11.28.68.17,2.16.68-.39.79-.39.79l.85.57c-3.13-.11-6.76.8-6.65,1.71s1.82,1.93,3.58,2.5.57,1.3.57,1.3h4.71c0,.61.77.62.81.62-3.82.77-1.53.77-1.53.77L41.58,90h80.14c0-.81-3.75-1.86-3.75-1.86s3.58-.51,5.06-.68-.46-.86.51-1-.57-1-.57-1c.74.06,1.53-.57,2.16-.46s-1.14-1-1.14-1,.63,0,2.05.11S127.34,83.54,126.83,83.54ZM66.65,86.4a4.87,4.87,0,0,0,2-.4l.26,1a6,6,0,0,1-2.51.45,4.43,4.43,0,0,1-4.69-4.8,4.72,4.72,0,0,1,5-5,5.06,5.06,0,0,1,2.25.42l-.3,1a4.34,4.34,0,0,0-1.91-.4c-2.23,0-3.7,1.42-3.7,3.91C63,84.9,64.34,86.4,66.65,86.4Zm7.2,1c-2.5,0-4.27-2-4.27-4.82s1.87-5,4.42-5,4.26,2,4.26,4.81C78.26,85.7,76.28,87.44,73.85,87.44ZM85,78.81H81.08V82h3.59v1H81.08v4.29H79.86v-9.5H85Zm6.86,0H87.94V82h3.6v1h-3.6v4.29H86.72v-9.5h5.11Zm7.09,8.47H93.58v-9.5h5.13v1h-3.9v3H98.5v1H94.81v3.42h4.11Zm6.93,0h-5.34v-9.5h5.13v1h-3.9v3h3.69v1h-3.69v3.42h4.11ZM73.94,78.63c-2,0-3,1.88-3,4s1.1,3.85,3,3.85,3-1.79,3-4C77,80.61,76,78.63,73.94,78.63Zm0,0c-2,0-3,1.88-3,4s1.1,3.85,3,3.85,3-1.79,3-4C77,80.61,76,78.63,73.94,78.63Zm0,0c-2,0-3,1.88-3,4s1.1,3.85,3,3.85,3-1.79,3-4C77,80.61,76,78.63,73.94,78.63Zm0,0c-2,0-3,1.88-3,4s1.1,3.85,3,3.85,3-1.79,3-4C77,80.61,76,78.63,73.94,78.63Zm0,0c-2,0-3,1.88-3,4s1.1,3.85,3,3.85,3-1.79,3-4C77,80.61,76,78.63,73.94,78.63Z"/><path class="cls-1" d="M54.41,27.58c-5.21-4.72-9.66-5.89-14.88-5a10.93,10.93,0,0,0-4.35-2.51c-2.22-.49-4.35,2.22-7.35,4.63s-8.89,5.13-12.08,6.67S2.32,39.47.39,45.85s4,9.57,4,9.57-5.46,12.77,3,19.42c9.76,7.69,26.74-.21,41.12-15.19S60.6,33.19,54.41,27.58Zm-49.09,26s-4.74-.78-1.26-6.67,11.07-9.15,11.39-9.28C15.2,38,6.85,50.15,5.32,53.59Zm32.86-.68C25.71,67,12.56,71.27,9.67,69.43c-1.62-1-.64-5.91,2.44-12.07,5.56.2,13.58-1.8,16.5-4.45-4.95,2.51-13.25,2.35-15.35,2.27A70,70,0,0,1,23.1,41.69C32.81,31.29,41.85,26.33,47,29.61S50.65,38.79,38.18,52.91Z"/><path class="cls-1" d="M72.61,64.19c-4,3.66-8.22,6.53-9.94,6.17s-.94-2.51,1.65-7.6,7.89-13.2,7.89-13.2,6.53.21,8.82-.34,2.87-2,2.16-2.1-9.51,0-9.51,0,1.9-3.8,3.34-7.61-2.52-6-3.09-5.45a.65.65,0,0,0,0,1s-.21,1.12-2.37,4.07S65.68,47,65.68,47s-4.16.07-5.88,0-.36,1.65.21,2.24,3.73.41,3.73.41A116.72,116.72,0,0,0,56.14,61c-2.94,5.23-.29,10.33,3.66,11.9s8.25-2.15,12.27-5.66,7.38-7.68,6.6-8S76.66,60.53,72.61,64.19Z"/><path class="cls-1" d="M159.31,61.9c-1.87,1.65-5.24,5.38-8.11,7.17s-2.08-.28-.72-3.3,5-8.73,5.31-10.87c.94-5.58-3.52-7.85-6.82-6.27s-12.77,10.3-12.77,10.3,5.74-8,5.46-11-4.31-5.24-4.74-4.45.72,1.15.72,1.15.86,1.29-5.74,9.25c-.59.71-1.11,1.39-1.59,2a55.13,55.13,0,0,1-14.62,11.44c-9.31,4.83-9.47,2.22-8.18-1.15A32.11,32.11,0,0,1,115,54.9c3.3-2.9,5.81-4.77,6.6-4.19s-.86,3.51-3.3,5.3-5.56,3.25-4.81,4.67c.58,1.07,5.31-.5,9.19-4s3.31-4.64,1.22-7.17c-1.73-2.08-4.52-4.59-6.68-4.31s-8.46,4.59-11.83,10.41a30.07,30.07,0,0,0-1.75,3.5c-.79-.31-2,1.41-6,5s-8.22,6.53-9.94,6.17-.94-2.51,1.65-7.6,7.89-13.2,7.89-13.2,6.53.21,8.82-.34,2.87-2,2.15-2.1-9.5,0-9.5,0,1.9-3.8,3.33-7.61-2.51-6-3.08-5.45a.65.65,0,0,0,0,1s-.22,1.12-2.37,4.07S90.72,47,90.72,47s-4.16.07-5.88,0-.36,1.65.21,2.24,3.73.41,3.73.41A116.72,116.72,0,0,0,81.18,61c-2.94,5.23-.29,10.33,3.66,11.9s8.25-2.15,12.26-5.66A40.89,40.89,0,0,0,103,61c-1.42,4.31-1.35,8.45,1.84,10.48,4.52,2.87,10.48,0,14.49-3.09,1.87-1.43,4.7-3.79,7.2-5.93a12,12,0,0,0-1,6.22c.28,2,2.22,3.52,2.94,3.3s.79-1.86,5.24-7.75,13.91-12.77,14.42-12.62-.15,2.87-1.58,5.74-3.37,6.81-3.37,6.81c-1.15,3.45,1.29,7.82,4.8,8.5S159.66,64.19,161.31,62,161.17,60.25,159.31,61.9Z"/><path class="cls-1" d="M156,39.17H154.1V38.5h4.57v.67h-1.89v5.5H156Z"/><path class="cls-1" d="M164.54,42c0-.86-.1-1.9-.1-2.66h0c-.22.71-.47,1.49-.78,2.34l-1.09,3H162l-1-2.94c-.29-.87-.53-1.66-.7-2.39h0c0,.77-.06,1.79-.12,2.72l-.16,2.65h-.76l.43-6.17h1l1,3c.25.76.46,1.44.62,2.08h0c.16-.62.37-1.3.65-2.08l1.1-3h1l.38,6.17h-.78Z"/></svg>